<?xml version="1.0" encoding="utf-8"?>
<!-- Generator: Adobe Illustrator 13.0.0, SVG Export Plug-In  -->
<!DOCTYPE svg PUBLIC "-//W3C//DTD SVG 1.1//EN" "http://www.w3.org/Graphics/SVG/1.1/DTD/svg11.dtd" [
	<!ENTITY ns_flows "http://ns.adobe.com/Flows/1.0/">
]>
<svg version="1.1"
	 xmlns="http://www.w3.org/2000/svg" xmlns:xlink="http://www.w3.org/1999/xlink" xmlns:a="http://ns.adobe.com/AdobeSVGViewerExtensions/3.0/"
	 x="0px" y="0px" width="75px" height="72px" viewBox="-5.115 -2.116 75 72" enable-background="new -5.115 -2.116 75 72"
	 xml:space="preserve">
<defs>
</defs>
<path opacity="0.25" fill="#FFFFFF" d="M32.885,2C14.722,2,0.002,16.72,0,34.883c0.002,18.162,14.722,32.882,32.885,32.884
	c18.16-0.002,32.882-14.722,32.884-32.884C65.767,16.72,51.045,2,32.885,2z M32.885,64.665C16.435,64.636,3.131,51.33,3.1,34.883
	C3.131,18.435,16.435,5.129,32.885,5.1c16.447,0.029,29.753,13.335,29.782,29.783C62.638,51.33,49.332,64.636,32.885,64.665z
	 M22.928,31.055l0.031,29.653L42.842,38.71L42.811,9.057L22.928,31.055z M37.707,36.735c-1.023,2.664-4.012,3.994-6.676,2.971
	c-2.663-1.025-3.992-4.013-2.969-6.677c1.024-2.663,4.013-3.993,6.676-2.969C37.402,31.083,38.73,34.073,37.707,36.735z"/>
<path opacity="0.25" d="M32.885,0C14.722,0,0.002,14.72,0,32.883c0.002,18.162,14.722,32.882,32.885,32.884
	c18.16-0.002,32.882-14.722,32.884-32.884C65.767,14.72,51.045,0,32.885,0z M32.885,62.665C16.435,62.636,3.131,49.33,3.1,32.883
	C3.131,16.435,16.435,3.129,32.885,3.1c16.447,0.029,29.753,13.335,29.782,29.783C62.638,49.33,49.332,62.636,32.885,62.665z
	 M22.928,29.055l0.031,29.653L42.842,36.71L42.811,7.057L22.928,29.055z M37.707,34.736c-1.023,2.664-4.012,3.994-6.676,2.97
	c-2.663-1.025-3.992-4.013-2.969-6.677c1.024-2.663,4.013-3.993,6.676-2.969C37.402,29.083,38.73,32.073,37.707,34.736z"/>
<path fill="#8B9A9D" d="M32.885,1C14.722,1,0.002,15.72,0,33.883c0.002,18.162,14.722,32.882,32.885,32.884
	c18.16-0.002,32.882-14.722,32.884-32.884C65.767,15.72,51.045,1,32.885,1z M32.885,63.665C16.435,63.636,3.131,50.33,3.1,33.883
	C3.131,17.435,16.435,4.129,32.885,4.1c16.447,0.029,29.753,13.335,29.782,29.783C62.638,50.33,49.332,63.636,32.885,63.665z
	 M22.928,30.055l0.031,29.653L42.842,37.71L42.811,8.057L22.928,30.055z M37.707,35.736c-1.023,2.664-4.012,3.994-6.676,2.97
	c-2.663-1.025-3.992-4.013-2.969-6.677c1.024-2.663,4.013-3.993,6.676-2.969C37.402,30.083,38.73,33.073,37.707,35.736z"/>
</svg>
