<?xml version="1.0" encoding="utf-8"?>
<!-- Generator: Adobe Illustrator 13.0.0, SVG Export Plug-In  -->
<!DOCTYPE svg PUBLIC "-//W3C//DTD SVG 1.1//EN" "http://www.w3.org/Graphics/SVG/1.1/DTD/svg11.dtd" [
	<!ENTITY ns_flows "http://ns.adobe.com/Flows/1.0/">
]>
<svg version="1.1"
	 xmlns="http://www.w3.org/2000/svg" xmlns:xlink="http://www.w3.org/1999/xlink" xmlns:a="http://ns.adobe.com/AdobeSVGViewerExtensions/3.0/"
	 x="0px" y="0px" width="42px" height="39px" viewBox="-3.116 -0.67 42 39" enable-background="new -3.116 -0.67 42 39"
	 xml:space="preserve">
<defs>
</defs>
<path opacity="0.25" fill="#FFFFFF" d="M17.884,2C8.006,2,0.001,10.005,0,19.883c0.001,9.877,8.006,17.882,17.884,17.882
	c9.876,0,17.883-8.005,17.884-17.882C35.767,10.005,27.76,2,17.884,2z M17.884,36.078c-8.946-0.015-16.181-7.25-16.198-16.195
	C1.703,10.938,8.938,3.702,17.884,3.686c8.945,0.016,16.182,7.252,16.197,16.197C34.065,28.828,26.829,36.063,17.884,36.078z
	 M12.47,17.801l0.017,16.125l10.812-11.964L23.282,5.838L12.47,17.801z M20.506,20.891c-0.556,1.448-2.181,2.171-3.63,1.615
	c-1.449-0.558-2.171-2.184-1.614-3.632c0.557-1.447,2.183-2.171,3.63-1.614C20.341,17.816,21.062,19.442,20.506,20.891z"/>
<path opacity="0.25" d="M17.884,0C8.006,0,0.001,8.005,0,17.883c0.001,9.876,8.006,17.881,17.884,17.881
	c9.876,0,17.883-8.005,17.884-17.881C35.767,8.005,27.76,0,17.884,0z M17.884,34.078c-8.946-0.015-16.181-7.25-16.198-16.195
	C1.703,8.938,8.938,1.702,17.884,1.686c8.945,0.016,16.182,7.252,16.197,16.197C34.065,26.828,26.829,34.063,17.884,34.078z
	 M12.47,15.801l0.017,16.125l10.812-11.964L23.282,3.838L12.47,15.801z M20.506,18.891c-0.556,1.448-2.181,2.171-3.63,1.615
	c-1.449-0.558-2.171-2.183-1.614-3.632c0.557-1.447,2.183-2.171,3.63-1.614C20.341,15.816,21.062,17.442,20.506,18.891z"/>
<path fill="#8B9A9D" d="M17.884,1C8.006,1,0.001,9.005,0,18.883c0.001,9.876,8.006,17.881,17.884,17.881
	c9.876,0,17.883-8.005,17.884-17.881C35.767,9.005,27.76,1,17.884,1z M17.884,35.078c-8.946-0.015-16.181-7.25-16.198-16.195
	C1.703,9.938,8.938,2.702,17.884,2.686c8.945,0.016,16.182,7.252,16.197,16.197C34.065,27.828,26.829,35.063,17.884,35.078z
	 M12.47,16.801l0.017,16.125l10.812-11.964L23.282,4.838L12.47,16.801z M20.506,19.891c-0.556,1.448-2.181,2.171-3.63,1.615
	c-1.449-0.558-2.171-2.183-1.614-3.632c0.557-1.447,2.183-2.171,3.63-1.614C20.341,16.816,21.062,18.442,20.506,19.891z"/>
</svg>
