<?xml version="1.0" encoding="utf-8"?>
<!-- Generator: Adobe Illustrator 13.0.0, SVG Export Plug-In  -->
<!DOCTYPE svg PUBLIC "-//W3C//DTD SVG 1.1//EN" "http://www.w3.org/Graphics/SVG/1.1/DTD/svg11.dtd" [
	<!ENTITY ns_flows "http://ns.adobe.com/Flows/1.0/">
]>
<svg version="1.1"
	 xmlns="http://www.w3.org/2000/svg" xmlns:xlink="http://www.w3.org/1999/xlink" xmlns:a="http://ns.adobe.com/AdobeSVGViewerExtensions/3.0/"
	 x="0px" y="0px" width="52px" height="50px" viewBox="-2.95 -1.003 52 50" enable-background="new -2.95 -1.003 52 50"
	 xml:space="preserve">
<defs>
</defs>
<path opacity="0.25" fill="#FFFFFF" d="M23.051,2C10.319,2,0.001,12.318,0,25.049C0.001,37.78,10.319,48.098,23.051,48.099
	C35.78,48.098,46.1,37.78,46.101,25.049C46.1,12.318,35.78,2,23.051,2z M23.051,45.925C11.52,45.904,2.195,36.578,2.173,25.049
	C2.195,13.521,11.52,4.193,23.051,4.173c11.529,0.021,20.856,9.348,20.876,20.876C43.907,36.578,34.58,45.904,23.051,45.925z
	 M16.071,22.367l0.022,20.785l13.937-15.42L30.008,6.947L16.071,22.367z M26.43,26.348c-0.717,1.867-2.812,2.8-4.679,2.082
	c-1.867-0.719-2.798-2.813-2.081-4.68c0.717-1.866,2.813-2.798,4.679-2.081C26.217,22.386,27.148,24.482,26.43,26.348z"/>
<path opacity="0.25" d="M23.051,0C10.319,0,0.001,10.318,0,23.049C0.001,35.78,10.319,46.098,23.051,46.099
	C35.78,46.098,46.1,35.78,46.101,23.049C46.1,10.318,35.78,0,23.051,0z M23.051,43.925C11.52,43.904,2.195,34.578,2.173,23.049
	C2.195,11.521,11.52,2.193,23.051,2.173c11.529,0.021,20.856,9.348,20.876,20.876C43.907,34.578,34.58,43.904,23.051,43.925z
	 M16.071,20.367l0.022,20.785l13.937-15.42L30.008,4.947L16.071,20.367z M26.43,24.348c-0.717,1.867-2.812,2.8-4.679,2.082
	c-1.867-0.719-2.798-2.813-2.081-4.68c0.717-1.866,2.813-2.798,4.679-2.081C26.217,20.386,27.148,22.482,26.43,24.348z"/>
<path fill="#8B9A9D" d="M23.051,1C10.319,1,0.001,11.318,0,24.049C0.001,36.78,10.319,47.098,23.051,47.099
	C35.78,47.098,46.1,36.78,46.101,24.049C46.1,11.318,35.78,1,23.051,1z M23.051,44.925C11.52,44.904,2.195,35.578,2.173,24.049
	C2.195,12.521,11.52,3.193,23.051,3.173c11.529,0.021,20.856,9.348,20.876,20.876C43.907,35.578,34.58,44.904,23.051,44.925z
	 M16.071,21.367l0.022,20.785l13.937-15.42L30.008,5.947L16.071,21.367z M26.43,25.348c-0.717,1.867-2.812,2.8-4.679,2.082
	c-1.867-0.719-2.798-2.813-2.081-4.68c0.717-1.866,2.813-2.798,4.679-2.081C26.217,21.386,27.148,23.482,26.43,25.348z"/>
</svg>
