<?xml version="1.0" encoding="utf-8"?>
<!-- Generator: Adobe Illustrator 13.0.0, SVG Export Plug-In  -->
<!DOCTYPE svg PUBLIC "-//W3C//DTD SVG 1.1//EN" "http://www.w3.org/Graphics/SVG/1.1/DTD/svg11.dtd" [
	<!ENTITY ns_flows "http://ns.adobe.com/Flows/1.0/">
]>
<svg version="1.1"
	 xmlns="http://www.w3.org/2000/svg" xmlns:xlink="http://www.w3.org/1999/xlink" xmlns:a="http://ns.adobe.com/AdobeSVGViewerExtensions/3.0/"
	 x="0px" y="0px" width="42px" height="39px" viewBox="-2.747 -0.718 42 39" enable-background="new -2.747 -0.718 42 39"
	 xml:space="preserve">
<defs>
</defs>
<path opacity="0.25" fill="#FFFFFF" d="M18.254,1.166C8.172,1.166,0.001,9.336,0,19.419C0.001,29.5,8.172,37.67,18.254,37.671
	c10.08-0.001,18.252-8.172,18.253-18.252C36.506,9.336,28.333,1.166,18.254,1.166z M18.254,35.95
	C9.123,35.934,1.738,28.547,1.721,19.419c0.017-9.13,7.402-16.517,16.533-16.533c9.129,0.016,16.515,7.402,16.532,16.533
	C34.769,28.547,27.383,35.934,18.254,35.95z M28.569,12.355H7.938c-0.226,0-0.448,0.091-0.608,0.251
	c-0.16,0.161-0.251,0.382-0.251,0.608V26.4c0,0.227,0.091,0.447,0.251,0.606c0.16,0.161,0.382,0.253,0.608,0.253h20.631
	c0.229,0,0.445-0.09,0.607-0.253c0.164-0.162,0.253-0.378,0.253-0.606V13.215c0-0.227-0.093-0.448-0.253-0.608
	C29.016,12.446,28.795,12.355,28.569,12.355z M25.625,14.075l-7.372,4.711l-7.373-4.711H25.625z M27.708,25.539H8.798V14.786
	l8.992,5.747c0.14,0.09,0.302,0.134,0.463,0.134c0.161,0,0.322-0.044,0.463-0.134l8.991-5.746V25.539z"/>
<path opacity="0.25" d="M18.254,0C8.172,0,0.001,8.171,0,18.252c0.001,10.081,8.172,18.253,18.254,18.254
	c10.08-0.001,18.252-8.173,18.253-18.254C36.506,8.171,28.333,0,18.254,0z M18.254,34.785C9.123,34.768,1.738,27.382,1.721,18.252
	C1.738,9.123,9.123,1.737,18.254,1.721c9.129,0.016,16.515,7.402,16.532,16.532C34.769,27.382,27.383,34.768,18.254,34.785z
	 M28.569,11.189H7.938c-0.226,0-0.448,0.092-0.608,0.251c-0.16,0.162-0.251,0.383-0.251,0.609v13.184
	c0,0.227,0.091,0.448,0.251,0.607c0.16,0.16,0.382,0.253,0.608,0.253h20.631c0.229,0,0.445-0.09,0.607-0.253
	c0.164-0.163,0.253-0.378,0.253-0.607V12.05c0-0.227-0.093-0.448-0.253-0.609C29.016,11.281,28.795,11.189,28.569,11.189z
	 M25.625,12.909l-7.372,4.711l-7.373-4.711H25.625z M27.708,24.374H8.798V13.62l8.992,5.747c0.14,0.089,0.302,0.134,0.463,0.134
	c0.161,0,0.322-0.045,0.463-0.134l8.991-5.747V24.374z"/>
<path fill="#8B9A9D" d="M18.254,0.555C8.172,0.555,0.001,8.726,0,18.808C0.001,28.889,8.172,37.06,18.254,37.061
	c10.08-0.001,18.252-8.172,18.253-18.253C36.506,8.726,28.333,0.555,18.254,0.555z M18.254,35.339
	C9.123,35.324,1.738,27.937,1.721,18.808C1.738,9.677,9.123,2.292,18.254,2.276c9.129,0.016,16.515,7.401,16.532,16.532
	C34.769,27.937,27.383,35.324,18.254,35.339z M28.569,11.744H7.938c-0.226,0-0.448,0.092-0.608,0.252
	c-0.16,0.161-0.251,0.382-0.251,0.609V25.79c0,0.227,0.091,0.447,0.251,0.606c0.16,0.161,0.382,0.253,0.608,0.253h20.631
	c0.229,0,0.445-0.09,0.607-0.253c0.164-0.162,0.253-0.378,0.253-0.606V12.604c0-0.227-0.093-0.448-0.253-0.609
	C29.016,11.836,28.795,11.744,28.569,11.744z M25.625,13.464l-7.372,4.71l-7.373-4.71H25.625z M27.708,24.928H8.798V14.175
	l8.992,5.746c0.14,0.091,0.302,0.135,0.463,0.135c0.161,0,0.322-0.044,0.463-0.135l8.991-5.746V24.928z"/>
</svg>
