<?xml version="1.0" encoding="utf-8"?>
<!-- Generator: Adobe Illustrator 13.0.0, SVG Export Plug-In  -->
<!DOCTYPE svg PUBLIC "-//W3C//DTD SVG 1.1//EN" "http://www.w3.org/Graphics/SVG/1.1/DTD/svg11.dtd" [
	<!ENTITY ns_flows "http://ns.adobe.com/Flows/1.0/">
]>
<svg version="1.1"
	 xmlns="http://www.w3.org/2000/svg" xmlns:xlink="http://www.w3.org/1999/xlink" xmlns:a="http://ns.adobe.com/AdobeSVGViewerExtensions/3.0/"
	 x="0px" y="0px" width="75px" height="72px" viewBox="-5.115 -2.116 75 72" enable-background="new -5.115 -2.116 75 72"
	 xml:space="preserve">
<defs>
</defs>
<path opacity="0.25" fill="#FFFFFF" d="M32.885,2.1C14.722,2.1,0.002,16.82,0,34.983c0.002,18.162,14.722,32.881,32.885,32.883
	c18.16-0.002,32.882-14.722,32.884-32.883C65.767,16.82,51.045,2.1,32.885,2.1z M32.885,64.765
	C16.435,64.735,3.131,51.43,3.1,34.983C3.131,18.535,16.435,5.229,32.885,5.2c16.447,0.029,29.753,13.335,29.782,29.783
	C62.638,51.43,49.332,64.735,32.885,64.765z M51.468,22.258H14.301c-0.408,0-0.808,0.165-1.096,0.453
	c-0.289,0.291-0.453,0.688-0.453,1.097v23.753c0,0.407,0.165,0.806,0.453,1.094s0.688,0.455,1.096,0.455h37.167
	c0.412,0,0.802-0.162,1.095-0.455c0.294-0.293,0.455-0.682,0.455-1.094V23.808c0-0.408-0.167-0.806-0.455-1.097
	C52.273,22.423,51.876,22.258,51.468,22.258z M46.166,25.357l-13.282,8.486l-13.282-8.486H46.166z M49.916,46.009H15.851V26.637
	L32.05,36.99c0.253,0.161,0.544,0.242,0.834,0.242s0.581-0.081,0.834-0.242l16.197-10.352V46.009z"/>
<path opacity="0.25" d="M32.885,0C14.722,0,0.002,14.72,0,32.883c0.002,18.162,14.722,32.882,32.885,32.884
	c18.16-0.002,32.882-14.722,32.884-32.884C65.767,14.72,51.045,0,32.885,0z M32.885,62.665C16.435,62.636,3.131,49.33,3.1,32.883
	C3.131,16.435,16.435,3.129,32.885,3.1c16.447,0.029,29.753,13.335,29.782,29.783C62.638,49.33,49.332,62.636,32.885,62.665z
	 M51.468,20.158H14.301c-0.408,0-0.808,0.165-1.096,0.453c-0.289,0.291-0.453,0.688-0.453,1.097v23.753
	c0,0.407,0.165,0.806,0.453,1.094s0.688,0.455,1.096,0.455h37.167c0.412,0,0.802-0.162,1.095-0.455
	c0.294-0.293,0.455-0.682,0.455-1.094V21.708c0-0.408-0.167-0.806-0.455-1.097C52.273,20.323,51.876,20.158,51.468,20.158z
	 M46.166,23.257l-13.282,8.486l-13.282-8.486H46.166z M49.916,43.909H15.851V24.537L32.05,34.891
	c0.253,0.161,0.544,0.242,0.834,0.242s0.581-0.081,0.834-0.242l16.197-10.352V43.909z"/>
<path fill="#8B9A9D" d="M32.885,1C14.722,1,0.002,15.72,0,33.883c0.002,18.162,14.722,32.882,32.885,32.884
	c18.16-0.002,32.882-14.722,32.884-32.884C65.767,15.72,51.045,1,32.885,1z M32.885,63.665C16.435,63.636,3.131,50.33,3.1,33.883
	C3.131,17.435,16.435,4.129,32.885,4.1c16.447,0.029,29.753,13.335,29.782,29.783C62.638,50.33,49.332,63.636,32.885,63.665z
	 M51.468,21.158H14.301c-0.408,0-0.808,0.165-1.096,0.453c-0.289,0.291-0.453,0.688-0.453,1.097v23.753
	c0,0.407,0.165,0.806,0.453,1.094s0.688,0.455,1.096,0.455h37.167c0.412,0,0.802-0.162,1.095-0.455
	c0.294-0.293,0.455-0.682,0.455-1.094V22.708c0-0.408-0.167-0.806-0.455-1.097C52.273,21.323,51.876,21.158,51.468,21.158z
	 M46.166,24.257l-13.282,8.486l-13.282-8.486H46.166z M49.916,44.909H15.851V25.537L32.05,35.891
	c0.253,0.161,0.544,0.242,0.834,0.242s0.581-0.081,0.834-0.242l16.197-10.352V44.909z"/>
</svg>
