<?xml version="1.0" encoding="utf-8"?>
<!-- Generator: Adobe Illustrator 13.0.0, SVG Export Plug-In  -->
<!DOCTYPE svg PUBLIC "-//W3C//DTD SVG 1.1//EN" "http://www.w3.org/Graphics/SVG/1.1/DTD/svg11.dtd" [
	<!ENTITY ns_flows "http://ns.adobe.com/Flows/1.0/">
]>
<svg version="1.1"
	 xmlns="http://www.w3.org/2000/svg" xmlns:xlink="http://www.w3.org/1999/xlink" xmlns:a="http://ns.adobe.com/AdobeSVGViewerExtensions/3.0/"
	 x="0px" y="0px" width="52px" height="50px" viewBox="-2.782 -1.094 52 50" enable-background="new -2.782 -1.094 52 50"
	 xml:space="preserve">
<defs>
</defs>
<path opacity="0.25" fill="#FFFFFF" d="M23.219,1.483C10.395,1.483,0.001,11.876,0,24.701c0.001,12.822,10.395,23.216,23.219,23.217
	c12.822-0.001,23.217-10.395,23.218-23.217C46.436,11.876,36.041,1.483,23.219,1.483z M23.219,45.729
	C11.604,45.708,2.21,36.312,2.189,24.701C2.21,13.087,11.604,3.692,23.219,3.672c11.613,0.021,21.007,9.415,21.029,21.029
	C44.226,36.312,34.832,45.708,23.219,45.729z M36.339,15.716H10.097c-0.288,0-0.57,0.116-0.774,0.32
	c-0.204,0.205-0.32,0.486-0.32,0.774v16.77c0,0.289,0.116,0.57,0.32,0.772c0.204,0.204,0.486,0.321,0.774,0.321h26.242
	c0.291,0,0.565-0.114,0.772-0.321c0.208-0.207,0.321-0.481,0.321-0.772V16.81c0-0.289-0.117-0.57-0.321-0.774
	C36.908,15.832,36.628,15.716,36.339,15.716z M32.596,17.903l-9.377,5.992l-9.378-5.992H32.596z M35.244,32.485H11.191V18.808
	l11.438,7.309c0.179,0.114,0.384,0.171,0.59,0.171c0.205,0,0.41-0.057,0.589-0.171l11.436-7.309V32.485z"/>
<path opacity="0.25" d="M23.219,0C10.395,0,0.001,10.394,0,23.217c0.001,12.824,10.395,23.217,23.219,23.218
	c12.822-0.001,23.217-10.395,23.218-23.218C46.436,10.394,36.041,0,23.219,0z M23.219,44.246C11.604,44.226,2.21,34.83,2.189,23.217
	C2.21,11.604,11.604,2.209,23.219,2.189c11.613,0.021,21.007,9.416,21.029,21.028C44.226,34.83,34.832,44.226,23.219,44.246z
	 M36.339,14.232H10.097c-0.288,0-0.57,0.117-0.774,0.32c-0.204,0.206-0.32,0.487-0.32,0.775v16.771c0,0.289,0.116,0.57,0.32,0.772
	c0.204,0.204,0.486,0.321,0.774,0.321h26.242c0.291,0,0.565-0.114,0.772-0.321c0.208-0.207,0.321-0.481,0.321-0.772V15.327
	c0-0.288-0.117-0.569-0.321-0.775C36.908,14.35,36.628,14.232,36.339,14.232z M32.596,16.421l-9.377,5.992l-9.378-5.992H32.596z
	 M35.244,31.003H11.191V17.325l11.438,7.311c0.179,0.114,0.384,0.17,0.59,0.17c0.205,0,0.41-0.057,0.589-0.17l11.436-7.31V31.003z"
	/>
<path fill="#8B9A9D" d="M23.219,0.706C10.395,0.706,0.001,11.1,0,23.923c0.001,12.824,10.395,23.217,23.219,23.218
	c12.822-0.001,23.217-10.395,23.218-23.218C46.436,11.1,36.041,0.706,23.219,0.706z M23.219,44.952
	C11.604,44.932,2.21,35.536,2.189,23.923C2.21,12.31,11.604,2.916,23.219,2.895c11.613,0.021,21.007,9.415,21.029,21.028
	C44.226,35.536,34.832,44.932,23.219,44.952z M36.339,14.938H10.097c-0.288,0-0.57,0.117-0.774,0.32
	c-0.204,0.206-0.32,0.487-0.32,0.775v16.771c0,0.289,0.116,0.57,0.32,0.772c0.204,0.204,0.486,0.321,0.774,0.321h26.242
	c0.291,0,0.565-0.114,0.772-0.321c0.208-0.207,0.321-0.481,0.321-0.772V16.033c0-0.288-0.117-0.569-0.321-0.775
	C36.908,15.056,36.628,14.938,36.339,14.938z M32.596,17.127l-9.377,5.992l-9.378-5.992H32.596z M35.244,31.709H11.191V18.031
	l11.438,7.31c0.179,0.114,0.384,0.171,0.59,0.171c0.205,0,0.41-0.057,0.589-0.171l11.436-7.309V31.709z"/>
</svg>
