<?xml version="1.0" encoding="utf-8"?>
<!-- Generator: Adobe Illustrator 13.0.0, SVG Export Plug-In  -->
<!DOCTYPE svg PUBLIC "-//W3C//DTD SVG 1.1//EN" "http://www.w3.org/Graphics/SVG/1.1/DTD/svg11.dtd" [
	<!ENTITY ns_flows "http://ns.adobe.com/Flows/1.0/">
]>
<svg version="1.1"
	 xmlns="http://www.w3.org/2000/svg" xmlns:xlink="http://www.w3.org/1999/xlink" xmlns:a="http://ns.adobe.com/AdobeSVGViewerExtensions/3.0/"
	 x="0px" y="0px" width="52px" height="50px" viewBox="-2.95 -1.303 52 50" enable-background="new -2.95 -1.303 52 50"
	 xml:space="preserve">
<defs>
</defs>
<path opacity="0.25" fill="#FFFFFF" d="M23.051,1.402C10.319,1.402,0.001,11.72,0,24.451C0.001,37.182,10.319,47.5,23.051,47.5
	C35.78,47.5,46.1,37.182,46.101,24.451C46.1,11.72,35.78,1.402,23.051,1.402z M23.051,45.327C11.52,45.306,2.195,35.98,2.173,24.451
	C2.195,12.922,11.52,3.595,23.051,3.575c11.529,0.02,20.856,9.347,20.876,20.876C43.907,35.98,34.58,45.306,23.051,45.327z
	 M26.897,27.099h-3.293v1.952h3.293V27.099z M31.292,32.314H28v1.952h3.293V32.314z M26.897,32.314h-3.293v1.952h3.293V32.314z
	 M26.897,29.706h-3.293v1.954h3.293V29.706z M31.292,29.706H28v1.954h3.293V29.706z M31.292,27.099H28v1.952h3.293V27.099z
	 M11.404,34.539c0,1.68,1.368,3.049,3.044,3.049h17.204c1.68,0,3.045-1.369,3.045-3.049V23.714H11.404V34.539z M12.84,25.145h20.422
	v9.394c0,0.89-0.72,1.614-1.61,1.614H14.448c-0.889,0-1.608-0.725-1.608-1.614V25.145z M22.502,27.099h-3.297v1.952h3.297V27.099z
	 M18.103,32.314h-3.294v1.952h3.294V32.314z M31.652,14.291h-0.787V13.43c0-1.085-0.856-1.971-1.914-1.971
	c-1.057,0-1.914,0.886-1.914,1.971v0.857h-1.963V13.43c0-1.085-0.858-1.971-1.915-1.971s-1.914,0.886-1.914,1.971v0.857h-1.963
	V13.43c0-1.085-0.857-1.971-1.915-1.971c-1.054,0-1.911,0.886-1.911,1.971v0.857h-1.008c-1.676,0-3.044,1.368-3.044,3.047v5.016
	h23.292v-5.016C34.697,15.654,33.332,14.291,31.652,14.291z M18.207,16.94c0,0.493-0.378,0.895-0.84,0.895
	c-0.461,0-0.836-0.402-0.836-0.895v-3.51c0-0.494,0.375-0.896,0.836-0.896c0.462,0,0.84,0.402,0.84,0.896V16.94z M23.999,16.94
	c0,0.493-0.377,0.895-0.84,0.895c-0.461,0-0.836-0.402-0.836-0.895v-3.51c0-0.494,0.375-0.896,0.836-0.896
	c0.463,0,0.84,0.402,0.84,0.896V16.94z M29.792,16.94c0,0.493-0.379,0.895-0.841,0.895c-0.461,0-0.84-0.402-0.84-0.895v-3.51
	c0-0.494,0.379-0.896,0.84-0.896c0.462,0,0.841,0.402,0.841,0.896V16.94z M18.103,29.706h-3.294v1.954h3.294V29.706z M22.502,29.706
	h-3.297v1.954h3.297V29.706z M22.502,32.314h-3.297v1.952h3.297V32.314z"/>
<path opacity="0.25" d="M23.051,0C10.319,0,0.001,10.318,0,23.049c0.001,12.73,10.319,23.048,23.051,23.05
	C35.78,46.097,46.1,35.78,46.101,23.049C46.1,10.318,35.78,0,23.051,0z M23.051,43.924C11.52,43.904,2.195,34.579,2.173,23.049
	C2.195,11.52,11.52,2.193,23.051,2.173c11.529,0.02,20.856,9.347,20.876,20.876C43.907,34.579,34.58,43.904,23.051,43.924z
	 M26.897,25.697h-3.293v1.953h3.293V25.697z M31.292,30.912H28v1.952h3.293V30.912z M26.897,30.912h-3.293v1.952h3.293V30.912z
	 M26.897,28.304h-3.293v1.953h3.293V28.304z M31.292,28.304H28v1.953h3.293V28.304z M31.292,25.697H28v1.953h3.293V25.697z
	 M11.404,33.136c0,1.681,1.368,3.049,3.044,3.049h17.204c1.68,0,3.045-1.368,3.045-3.049V22.312H11.404V33.136z M12.84,23.744
	h20.422v9.392c0,0.891-0.72,1.614-1.61,1.614H14.448c-0.889,0-1.608-0.724-1.608-1.614V23.744z M22.502,25.697h-3.297v1.953h3.297
	V25.697z M18.103,30.912h-3.294v1.952h3.294V30.912z M31.652,12.888h-0.787v-0.861c0-1.085-0.856-1.97-1.914-1.97
	c-1.057,0-1.914,0.885-1.914,1.97v0.857h-1.963v-0.857c0-1.085-0.858-1.97-1.915-1.97s-1.914,0.885-1.914,1.97v0.857h-1.963v-0.857
	c0-1.085-0.857-1.97-1.915-1.97c-1.054,0-1.911,0.885-1.911,1.97v0.857h-1.008c-1.676,0-3.044,1.368-3.044,3.047v5.016h23.292
	v-5.016C34.697,14.252,33.332,12.888,31.652,12.888z M18.207,15.538c0,0.493-0.378,0.896-0.84,0.896
	c-0.461,0-0.836-0.402-0.836-0.896v-3.51c0-0.494,0.375-0.896,0.836-0.896c0.462,0,0.84,0.402,0.84,0.896V15.538z M23.999,15.538
	c0,0.493-0.377,0.896-0.84,0.896c-0.461,0-0.836-0.402-0.836-0.896v-3.51c0-0.494,0.375-0.896,0.836-0.896
	c0.463,0,0.84,0.402,0.84,0.896V15.538z M29.792,15.538c0,0.493-0.379,0.896-0.841,0.896c-0.461,0-0.84-0.402-0.84-0.896v-3.51
	c0-0.494,0.379-0.896,0.84-0.896c0.462,0,0.841,0.402,0.841,0.896V15.538z M18.103,28.304h-3.294v1.953h3.294V28.304z
	 M22.502,28.304h-3.297v1.953h3.297V28.304z M22.502,30.912h-3.297v1.952h3.297V30.912z"/>
<path fill="#8B9A9D" d="M23.051,0.701C10.319,0.701,0.001,11.019,0,23.75c0.001,12.731,10.319,23.048,23.051,23.049
	C35.78,46.798,46.1,36.481,46.101,23.75C46.1,11.019,35.78,0.701,23.051,0.701z M23.051,44.625
	C11.52,44.605,2.195,35.279,2.173,23.75C2.195,12.221,11.52,2.894,23.051,2.874C34.58,2.894,43.907,12.221,43.927,23.75
	C43.907,35.279,34.58,44.605,23.051,44.625z M26.897,26.398h-3.293v1.952h3.293V26.398z M31.292,31.613H28v1.952h3.293V31.613z
	 M26.897,31.613h-3.293v1.952h3.293V31.613z M26.897,29.004h-3.293v1.954h3.293V29.004z M31.292,29.004H28v1.954h3.293V29.004z
	 M31.292,26.398H28v1.952h3.293V26.398z M11.404,33.837c0,1.68,1.368,3.049,3.044,3.049h17.204c1.68,0,3.045-1.369,3.045-3.049
	V23.013H11.404V33.837z M12.84,24.445h20.422v9.393c0,0.89-0.72,1.614-1.61,1.614H14.448c-0.889,0-1.608-0.725-1.608-1.614V24.445z
	 M22.502,26.398h-3.297v1.952h3.297V26.398z M18.103,31.613h-3.294v1.952h3.294V31.613z M31.652,13.59h-0.787v-0.861
	c0-1.085-0.856-1.97-1.914-1.97c-1.057,0-1.914,0.885-1.914,1.97v0.857h-1.963v-0.857c0-1.085-0.858-1.97-1.915-1.97
	s-1.914,0.885-1.914,1.97v0.857h-1.963v-0.857c0-1.085-0.857-1.97-1.915-1.97c-1.054,0-1.911,0.885-1.911,1.97v0.857h-1.008
	c-1.676,0-3.044,1.368-3.044,3.048v5.015h23.292v-5.015C34.697,14.953,33.332,13.59,31.652,13.59z M18.207,16.239
	c0,0.493-0.378,0.896-0.84,0.896c-0.461,0-0.836-0.403-0.836-0.896v-3.51c0-0.494,0.375-0.896,0.836-0.896
	c0.462,0,0.84,0.402,0.84,0.896V16.239z M23.999,16.239c0,0.493-0.377,0.896-0.84,0.896c-0.461,0-0.836-0.403-0.836-0.896v-3.51
	c0-0.494,0.375-0.896,0.836-0.896c0.463,0,0.84,0.402,0.84,0.896V16.239z M29.792,16.239c0,0.493-0.379,0.896-0.841,0.896
	c-0.461,0-0.84-0.403-0.84-0.896v-3.51c0-0.494,0.379-0.896,0.84-0.896c0.462,0,0.841,0.402,0.841,0.896V16.239z M18.103,29.004
	h-3.294v1.954h3.294V29.004z M22.502,29.004h-3.297v1.954h3.297V29.004z M22.502,31.613h-3.297v1.952h3.297V31.613z"/>
</svg>
