<?xml version="1.0" encoding="utf-8"?>
<!-- Generator: Adobe Illustrator 13.0.0, SVG Export Plug-In  -->
<!DOCTYPE svg PUBLIC "-//W3C//DTD SVG 1.1//EN" "http://www.w3.org/Graphics/SVG/1.1/DTD/svg11.dtd" [
	<!ENTITY ns_flows "http://ns.adobe.com/Flows/1.0/">
]>
<svg version="1.1"
	 xmlns="http://www.w3.org/2000/svg" xmlns:xlink="http://www.w3.org/1999/xlink" xmlns:a="http://ns.adobe.com/AdobeSVGViewerExtensions/3.0/"
	 x="0px" y="0px" width="75px" height="72px" viewBox="-5.115 -2.116 75 72" enable-background="new -5.115 -2.116 75 72"
	 xml:space="preserve">
<defs>
</defs>
<path opacity="0.25" fill="#FFFFFF" d="M32.885,2C14.722,2,0.002,16.72,0,34.883c0.002,18.162,14.722,32.882,32.885,32.884
	c18.16-0.002,32.882-14.722,32.884-32.884C65.767,16.72,51.045,2,32.885,2z M32.885,64.665C16.435,64.636,3.131,51.33,3.1,34.883
	C3.131,18.435,16.435,5.129,32.885,5.1c16.447,0.029,29.753,13.335,29.782,29.783C62.638,51.33,49.332,64.636,32.885,64.665z
	 M38.372,38.66h-4.698v2.786h4.698V38.66z M44.643,46.1h-4.698v2.785h4.698V46.1z M38.372,46.1h-4.698v2.785h4.698V46.1z
	 M38.372,42.38h-4.698v2.786h4.698V42.38z M44.643,42.38h-4.698v2.786h4.698V42.38z M44.643,38.66h-4.698v2.786h4.698V38.66z
	 M16.27,49.273c0,2.396,1.951,4.35,4.343,4.35h24.544c2.396,0,4.344-1.953,4.344-4.35V33.831H16.27V49.273z M18.317,35.874h29.136
	v13.399c0,1.27-1.028,2.303-2.297,2.303H20.612c-1.268,0-2.295-1.033-2.295-2.303V35.874z M32.101,38.66h-4.703v2.786h4.703V38.66z
	 M25.826,46.1h-4.699v2.785h4.699V46.1z M45.156,20.387h-1.123v-1.228c0-1.548-1.224-2.811-2.731-2.811
	c-1.507,0-2.73,1.263-2.73,2.811v1.223h-2.801v-1.223c0-1.548-1.224-2.811-2.731-2.811c-1.508,0-2.731,1.263-2.731,2.811v1.223
	h-2.801v-1.223c0-1.548-1.223-2.811-2.731-2.811c-1.503,0-2.726,1.263-2.726,2.811v1.223h-1.438c-2.392,0-4.343,1.951-4.343,4.348
	v7.155H49.5V24.73C49.5,22.333,47.553,20.387,45.156,20.387z M25.975,24.167c0,0.704-0.539,1.278-1.199,1.278
	c-0.658,0-1.192-0.574-1.192-1.278v-5.007c0-0.705,0.535-1.278,1.192-1.278c0.66,0,1.199,0.574,1.199,1.278V24.167z M34.238,24.167
	c0,0.704-0.54,1.278-1.199,1.278s-1.193-0.574-1.193-1.278v-5.007c0-0.705,0.534-1.278,1.193-1.278s1.199,0.574,1.199,1.278V24.167z
	 M42.501,24.167c0,0.704-0.54,1.278-1.199,1.278c-0.658,0-1.198-0.574-1.198-1.278v-5.007c0-0.705,0.54-1.278,1.198-1.278
	c0.659,0,1.199,0.574,1.199,1.278V24.167z M25.826,42.38h-4.699v2.786h4.699V42.38z M32.101,42.38h-4.703v2.786h4.703V42.38z
	 M32.101,46.1h-4.703v2.785h4.703V46.1z"/>
<path opacity="0.25" d="M32.885,0C14.722,0,0.002,14.72,0,32.883c0.002,18.162,14.722,32.882,32.885,32.884
	c18.16-0.002,32.882-14.722,32.884-32.884C65.767,14.72,51.045,0,32.885,0z M32.885,62.665C16.435,62.636,3.131,49.33,3.1,32.883
	C3.131,16.435,16.435,3.129,32.885,3.1c16.447,0.029,29.753,13.335,29.782,29.783C62.638,49.33,49.332,62.636,32.885,62.665z
	 M38.372,36.66h-4.698v2.786h4.698V36.66z M44.643,44.1h-4.698v2.785h4.698V44.1z M38.372,44.1h-4.698v2.785h4.698V44.1z
	 M38.372,40.38h-4.698v2.786h4.698V40.38z M44.643,40.38h-4.698v2.786h4.698V40.38z M44.643,36.66h-4.698v2.786h4.698V36.66z
	 M16.27,47.273c0,2.396,1.951,4.35,4.343,4.35h24.544c2.396,0,4.344-1.953,4.344-4.35V31.831H16.27V47.273z M18.317,33.874h29.136
	v13.399c0,1.27-1.028,2.303-2.297,2.303H20.612c-1.268,0-2.295-1.033-2.295-2.303V33.874z M32.101,36.66h-4.703v2.786h4.703V36.66z
	 M25.826,44.1h-4.699v2.785h4.699V44.1z M45.156,18.387h-1.123v-1.228c0-1.548-1.224-2.811-2.731-2.811
	c-1.507,0-2.73,1.263-2.73,2.811v1.223h-2.801v-1.223c0-1.548-1.224-2.811-2.731-2.811c-1.508,0-2.731,1.263-2.731,2.811v1.223
	h-2.801v-1.223c0-1.548-1.223-2.811-2.731-2.811c-1.503,0-2.726,1.263-2.726,2.811v1.223h-1.438c-2.392,0-4.343,1.951-4.343,4.348
	v7.155H49.5V22.73C49.5,20.333,47.553,18.387,45.156,18.387z M25.975,22.167c0,0.704-0.539,1.278-1.199,1.278
	c-0.658,0-1.192-0.574-1.192-1.278v-5.007c0-0.705,0.535-1.278,1.192-1.278c0.66,0,1.199,0.574,1.199,1.278V22.167z M34.238,22.167
	c0,0.704-0.54,1.278-1.199,1.278s-1.193-0.574-1.193-1.278v-5.007c0-0.705,0.534-1.278,1.193-1.278s1.199,0.574,1.199,1.278V22.167z
	 M42.501,22.167c0,0.704-0.54,1.278-1.199,1.278c-0.658,0-1.198-0.574-1.198-1.278v-5.007c0-0.705,0.54-1.278,1.198-1.278
	c0.659,0,1.199,0.574,1.199,1.278V22.167z M25.826,40.38h-4.699v2.786h4.699V40.38z M32.101,40.38h-4.703v2.786h4.703V40.38z
	 M32.101,44.1h-4.703v2.785h4.703V44.1z"/>
<path fill="#8B9A9D" d="M32.885,1C14.722,1,0.002,15.72,0,33.883c0.002,18.162,14.722,32.882,32.885,32.884
	c18.16-0.002,32.882-14.722,32.884-32.884C65.767,15.72,51.045,1,32.885,1z M32.885,63.665C16.435,63.636,3.131,50.33,3.1,33.883
	C3.131,17.435,16.435,4.129,32.885,4.1c16.447,0.029,29.753,13.335,29.782,29.783C62.638,50.33,49.332,63.636,32.885,63.665z
	 M38.372,37.66h-4.698v2.786h4.698V37.66z M44.643,45.1h-4.698v2.785h4.698V45.1z M38.372,45.1h-4.698v2.785h4.698V45.1z
	 M38.372,41.38h-4.698v2.786h4.698V41.38z M44.643,41.38h-4.698v2.786h4.698V41.38z M44.643,37.66h-4.698v2.786h4.698V37.66z
	 M16.27,48.273c0,2.396,1.951,4.35,4.343,4.35h24.544c2.396,0,4.344-1.953,4.344-4.35V32.831H16.27V48.273z M18.317,34.874h29.136
	v13.399c0,1.27-1.028,2.303-2.297,2.303H20.612c-1.268,0-2.295-1.033-2.295-2.303V34.874z M32.101,37.66h-4.703v2.786h4.703V37.66z
	 M25.826,45.1h-4.699v2.785h4.699V45.1z M45.156,19.387h-1.123v-1.228c0-1.548-1.224-2.811-2.731-2.811
	c-1.507,0-2.73,1.263-2.73,2.811v1.223h-2.801v-1.223c0-1.548-1.224-2.811-2.731-2.811c-1.508,0-2.731,1.263-2.731,2.811v1.223
	h-2.801v-1.223c0-1.548-1.223-2.811-2.731-2.811c-1.503,0-2.726,1.263-2.726,2.811v1.223h-1.438c-2.392,0-4.343,1.951-4.343,4.348
	v7.155H49.5V23.73C49.5,21.333,47.553,19.387,45.156,19.387z M25.975,23.167c0,0.704-0.539,1.278-1.199,1.278
	c-0.658,0-1.192-0.574-1.192-1.278v-5.007c0-0.705,0.535-1.278,1.192-1.278c0.66,0,1.199,0.574,1.199,1.278V23.167z M34.238,23.167
	c0,0.704-0.54,1.278-1.199,1.278s-1.193-0.574-1.193-1.278v-5.007c0-0.705,0.534-1.278,1.193-1.278s1.199,0.574,1.199,1.278V23.167z
	 M42.501,23.167c0,0.704-0.54,1.278-1.199,1.278c-0.658,0-1.198-0.574-1.198-1.278v-5.007c0-0.705,0.54-1.278,1.198-1.278
	c0.659,0,1.199,0.574,1.199,1.278V23.167z M25.826,41.38h-4.699v2.786h4.699V41.38z M32.101,41.38h-4.703v2.786h4.703V41.38z
	 M32.101,45.1h-4.703v2.785h4.703V45.1z"/>
</svg>
