<?xml version="1.0" encoding="utf-8"?>
<!-- Generator: Adobe Illustrator 13.0.0, SVG Export Plug-In  -->
<!DOCTYPE svg PUBLIC "-//W3C//DTD SVG 1.1//EN" "http://www.w3.org/Graphics/SVG/1.1/DTD/svg11.dtd" [
	<!ENTITY ns_flows "http://ns.adobe.com/Flows/1.0/">
]>
<svg version="1.1"
	 xmlns="http://www.w3.org/2000/svg" xmlns:xlink="http://www.w3.org/1999/xlink" xmlns:a="http://ns.adobe.com/AdobeSVGViewerExtensions/3.0/"
	 x="0px" y="0px" width="42px" height="39px" viewBox="-2.949 -0.855 42 39" enable-background="new -2.949 -0.855 42 39"
	 xml:space="preserve">
<defs>
</defs>
<path opacity="0.25" fill="#FFFFFF" d="M18.051,1.097C8.082,1.097,0.001,9.177,0,19.147c0.001,9.97,8.082,18.049,18.051,18.05
	c9.969-0.001,18.05-8.08,18.051-18.05C36.101,9.177,28.02,1.097,18.051,1.097z M18.051,35.495
	C9.021,35.479,1.719,28.176,1.702,19.147c0.018-9.029,7.32-16.333,16.349-16.349c9.028,0.016,16.332,7.32,16.349,16.349
	C34.383,28.176,27.079,35.479,18.051,35.495z M21.063,21.221h-2.579v1.529h2.579V21.221z M24.505,25.305h-2.578v1.528h2.578V25.305z
	 M21.063,25.305h-2.579v1.528h2.579V25.305z M21.063,23.262h-2.579v1.53h2.579V23.262z M24.505,23.262h-2.578v1.53h2.578V23.262z
	 M24.505,21.221h-2.578v1.529h2.578V21.221z M8.931,27.047c0,1.315,1.071,2.388,2.384,2.388h13.471c1.315,0,2.385-1.072,2.385-2.388
	v-8.478H8.931V27.047z M10.055,19.69h15.993v7.357c0,0.696-0.563,1.264-1.262,1.264H11.315c-0.696,0-1.26-0.567-1.26-1.264V19.69z
	 M17.621,21.221h-2.582v1.529h2.582V21.221z M14.177,25.305h-2.58v1.528h2.58V25.305z M24.786,11.19H24.17v-0.673
	c0-0.851-0.67-1.543-1.499-1.543c-0.827,0-1.498,0.693-1.498,1.543v0.67h-1.537v-0.67c0-0.851-0.673-1.543-1.5-1.543
	c-0.828,0-1.498,0.693-1.498,1.543v0.67H15.1v-0.67c0-0.851-0.67-1.543-1.5-1.543c-0.824,0-1.496,0.693-1.496,1.543v0.67h-0.789
	c-1.313,0-2.384,1.071-2.384,2.387v3.928h18.24v-3.928C27.171,12.258,26.102,11.19,24.786,11.19z M14.258,13.265
	c0,0.385-0.295,0.7-0.658,0.7c-0.361,0-0.655-0.315-0.655-0.7v-2.749c0-0.387,0.294-0.702,0.655-0.702
	c0.362,0,0.658,0.315,0.658,0.702V13.265z M18.794,13.265c0,0.385-0.296,0.7-0.658,0.7c-0.362,0-0.655-0.315-0.655-0.7v-2.749
	c0-0.387,0.293-0.702,0.655-0.702c0.362,0,0.658,0.315,0.658,0.702V13.265z M23.33,13.265c0,0.385-0.297,0.7-0.659,0.7
	c-0.36,0-0.657-0.315-0.657-0.7v-2.749c0-0.387,0.297-0.702,0.657-0.702c0.362,0,0.659,0.315,0.659,0.702V13.265z M14.177,23.262
	h-2.58v1.53h2.58V23.262z M17.621,23.262h-2.582v1.53h2.582V23.262z M17.621,25.305h-2.582v1.528h2.582V25.305z"/>
<path opacity="0.25" d="M18.051,0C8.082,0,0.001,8.079,0,18.049c0.001,9.97,8.082,18.049,18.051,18.051
	c9.969-0.002,18.05-8.081,18.051-18.051C36.101,8.079,28.02,0,18.051,0z M18.051,34.396C9.021,34.381,1.719,27.078,1.702,18.049
	C1.719,9.021,9.021,1.717,18.051,1.701c9.028,0.016,16.332,7.319,16.349,16.348C34.383,27.078,27.079,34.381,18.051,34.396z
	 M21.063,20.123h-2.579v1.529h2.579V20.123z M24.505,24.206h-2.578v1.529h2.578V24.206z M21.063,24.206h-2.579v1.529h2.579V24.206z
	 M21.063,22.165h-2.579v1.529h2.579V22.165z M24.505,22.165h-2.578v1.529h2.578V22.165z M24.505,20.123h-2.578v1.529h2.578V20.123z
	 M8.931,25.948c0,1.316,1.071,2.388,2.384,2.388h13.471c1.315,0,2.385-1.071,2.385-2.388v-8.477H8.931V25.948z M10.055,18.594
	h15.993v7.354c0,0.697-0.563,1.265-1.262,1.265H11.315c-0.696,0-1.26-0.567-1.26-1.265V18.594z M17.621,20.123h-2.582v1.529h2.582
	V20.123z M14.177,24.206h-2.58v1.529h2.58V24.206z M24.786,10.092H24.17V9.418c0-0.851-0.67-1.543-1.499-1.543
	c-0.827,0-1.498,0.693-1.498,1.543v0.671h-1.537V9.418c0-0.851-0.673-1.543-1.5-1.543c-0.828,0-1.498,0.693-1.498,1.543v0.671H15.1
	V9.418c0-0.851-0.67-1.543-1.5-1.543c-0.824,0-1.496,0.693-1.496,1.543v0.671h-0.789c-1.313,0-2.384,1.07-2.384,2.386v3.928h18.24
	v-3.928C27.171,11.16,26.102,10.092,24.786,10.092z M14.258,12.167c0,0.386-0.295,0.702-0.658,0.702
	c-0.361,0-0.655-0.315-0.655-0.702V9.418c0-0.387,0.294-0.702,0.655-0.702c0.362,0,0.658,0.315,0.658,0.702V12.167z M18.794,12.167
	c0,0.386-0.296,0.702-0.658,0.702c-0.362,0-0.655-0.315-0.655-0.702V9.418c0-0.387,0.293-0.702,0.655-0.702
	c0.362,0,0.658,0.315,0.658,0.702V12.167z M23.33,12.167c0,0.386-0.297,0.702-0.659,0.702c-0.36,0-0.657-0.315-0.657-0.702V9.418
	c0-0.387,0.297-0.702,0.657-0.702c0.362,0,0.659,0.315,0.659,0.702V12.167z M14.177,22.165h-2.58v1.529h2.58V22.165z M17.621,22.165
	h-2.582v1.529h2.582V22.165z M17.621,24.206h-2.582v1.529h2.582V24.206z"/>
<path fill="#8B9A9D" d="M18.051,0.548C8.082,0.548,0.001,8.628,0,18.598c0.001,9.969,8.082,18.049,18.051,18.049
	c9.969,0,18.05-8.08,18.051-18.049C36.101,8.628,28.02,0.548,18.051,0.548z M18.051,34.945C9.021,34.93,1.719,27.626,1.702,18.598
	C1.719,9.57,9.021,2.266,18.051,2.25c9.028,0.016,16.332,7.32,16.349,16.349C34.383,27.626,27.079,34.93,18.051,34.945z
	 M21.063,20.672h-2.579V22.2h2.579V20.672z M24.505,24.756h-2.578v1.528h2.578V24.756z M21.063,24.756h-2.579v1.528h2.579V24.756z
	 M21.063,22.713h-2.579v1.53h2.579V22.713z M24.505,22.713h-2.578v1.53h2.578V22.713z M24.505,20.672h-2.578V22.2h2.578V20.672z
	 M8.931,26.498c0,1.314,1.071,2.387,2.384,2.387h13.471c1.315,0,2.385-1.072,2.385-2.387V18.02H8.931V26.498z M10.055,19.142h15.993
	v7.356c0,0.696-0.563,1.264-1.262,1.264H11.315c-0.696,0-1.26-0.567-1.26-1.264V19.142z M17.621,20.672h-2.582V22.2h2.582V20.672z
	 M14.177,24.756h-2.58v1.528h2.58V24.756z M24.786,10.642H24.17V9.967c0-0.85-0.67-1.543-1.499-1.543
	c-0.827,0-1.498,0.693-1.498,1.543v0.671h-1.537V9.967c0-0.85-0.673-1.543-1.5-1.543c-0.828,0-1.498,0.693-1.498,1.543v0.671H15.1
	V9.967c0-0.85-0.67-1.543-1.5-1.543c-0.824,0-1.496,0.693-1.496,1.543v0.671h-0.789c-1.313,0-2.384,1.071-2.384,2.387v3.928h18.24
	v-3.928C27.171,11.709,26.102,10.642,24.786,10.642z M14.258,12.716c0,0.385-0.295,0.701-0.658,0.701
	c-0.361,0-0.655-0.316-0.655-0.701V9.967c0-0.387,0.294-0.702,0.655-0.702c0.362,0,0.658,0.315,0.658,0.702V12.716z M18.794,12.716
	c0,0.385-0.296,0.701-0.658,0.701c-0.362,0-0.655-0.316-0.655-0.701V9.967c0-0.387,0.293-0.702,0.655-0.702
	c0.362,0,0.658,0.315,0.658,0.702V12.716z M23.33,12.716c0,0.385-0.297,0.701-0.659,0.701c-0.36,0-0.657-0.316-0.657-0.701V9.967
	c0-0.387,0.297-0.702,0.657-0.702c0.362,0,0.659,0.315,0.659,0.702V12.716z M14.177,22.713h-2.58v1.53h2.58V22.713z M17.621,22.713
	h-2.582v1.53h2.582V22.713z M17.621,24.756h-2.582v1.528h2.582V24.756z"/>
</svg>
