<?xml version="1.0" encoding="utf-8"?>
<!-- Generator: Adobe Illustrator 13.0.0, SVG Export Plug-In  -->
<!DOCTYPE svg PUBLIC "-//W3C//DTD SVG 1.1//EN" "http://www.w3.org/Graphics/SVG/1.1/DTD/svg11.dtd" [
	<!ENTITY ns_flows "http://ns.adobe.com/Flows/1.0/">
]>
<svg version="1.1"
	 xmlns="http://www.w3.org/2000/svg" xmlns:xlink="http://www.w3.org/1999/xlink" xmlns:a="http://ns.adobe.com/AdobeSVGViewerExtensions/3.0/"
	 x="0px" y="0px" width="256px" height="256px" viewBox="8 8 256 256" enable-background="new 8 8 256 256" xml:space="preserve">
<defs>
</defs>
<filter  height="130%" id="dropshadow_c">
	<feGaussianBlur  stdDeviation="3" in="SourceAlpha"></feGaussianBlur>
	<feOffset  dy="4" dx="0" result="offsetblur"></feOffset>
	<feComponentTransfer>
		<feFuncA  type="linear" slope="0.30"></feFuncA>
	</feComponentTransfer>
	<feMerge>
		<feMergeNode></feMergeNode>
		<feMergeNode  in="SourceGraphic"></feMergeNode>
	</feMerge>
</filter>
<rect x="8" y="8" display="none" opacity="0.98" fill="#FFFFFF" width="256" height="256"/>
<g filter="url(#dropshadow_c)">
	<circle fill="#FFFFFF" cx="136" cy="136" r="113.3"/>
</g>
<circle fill="#FFFFFF" stroke="#E3E3E3" stroke-width="0.9444" cx="136" cy="136" r="113.3"/>
<circle fill="#FFFFFF" stroke="#E3E3E3" cx="136" cy="136" r="35.3"/>
<circle fill="#FFFFFF" stroke="#E3E3E3" cx="136" cy="136" r="16.7"/>
<path fill-rule="evenodd" clip-rule="evenodd" fill="#F39A00" d="M117.6,146.4c-7.1,5.3-17.5,8.1-26.3,8.1
	c-12.5,0-23.7-4.6-32.2-12.3c-0.7-0.6-0.1-1.4,0.7-1c9.2,5.3,20.5,8.5,32.2,8.5c7.9,0,16.6-1.6,24.6-5
	C117.7,144.2,118.7,145.6,117.6,146.4"/>
<path fill-rule="evenodd" clip-rule="evenodd" fill="#F39A00" d="M120.5,143c-0.9-1.2-6-0.6-8.3-0.3c-0.7,0.1-0.8-0.5-0.2-1
	c4.1-2.9,10.8-2,11.5-1.1c0.8,1-0.2,7.7-4,10.9c-0.6,0.5-1.1,0.2-0.9-0.4C119.5,149,121.4,144.2,120.5,143"/>
<path fill-rule="evenodd" clip-rule="evenodd" fill="#111210" d="M112.4,121.6v-2.8c0-0.4,0.3-0.7,0.7-0.7l12.5,0
	c0.4,0,0.7,0.3,0.7,0.7l0,2.4c0,0.4-0.3,0.9-0.9,1.8l-6.5,9.2c2.4-0.1,4.9,0.3,7.1,1.5c0.5,0.3,0.6,0.7,0.7,1.1v3
	c0,0.4-0.4,0.9-0.9,0.6c-3.8-2-8.9-2.2-13.2,0c-0.4,0.2-0.9-0.2-0.9-0.6v-2.8c0-0.5,0-1.2,0.5-1.9l7.5-10.7l-6.5,0
	C112.7,122.3,112.4,122,112.4,121.6"/>
<path fill-rule="evenodd" clip-rule="evenodd" fill="#111210" d="M66.9,138.9h-3.8c-0.4,0-0.6-0.3-0.7-0.6l0-19.5
	c0-0.4,0.3-0.7,0.7-0.7l3.5,0c0.4,0,0.7,0.3,0.7,0.7v2.5h0.1c0.9-2.5,2.7-3.6,5-3.6c2.4,0,3.9,1.1,4.9,3.6c0.9-2.5,3-3.6,5.2-3.6
	c1.6,0,3.3,0.7,4.4,2.1c1.2,1.6,1,4,1,6.1l0,12.3c0,0.4-0.3,0.7-0.7,0.7h-3.8c-0.4,0-0.7-0.3-0.7-0.7l0-10.3c0-0.8,0.1-2.9-0.1-3.6
	c-0.3-1.3-1.1-1.7-2.2-1.7c-0.9,0-1.9,0.6-2.3,1.6c-0.4,1-0.4,2.6-0.4,3.7v10.3c0,0.4-0.3,0.7-0.7,0.7h-3.8c-0.4,0-0.7-0.3-0.7-0.7
	l0-10.3c0-2.2,0.4-5.4-2.3-5.4c-2.7,0-2.6,3.1-2.6,5.4l0,10.3C67.6,138.6,67.3,138.9,66.9,138.9"/>
<path fill-rule="evenodd" clip-rule="evenodd" fill="#111210" d="M137,117.7c5.6,0,8.7,4.8,8.7,11c0,5.9-3.4,10.7-8.7,10.7
	c-5.5,0-8.5-4.8-8.5-10.9C128.5,122.4,131.5,117.7,137,117.7 M137,121.7c-2.8,0-3,3.8-3,6.2c0,2.4,0,7.5,2.9,7.5
	c2.9,0,3.1-4.1,3.1-6.6c0-1.6-0.1-3.6-0.6-5.2C139.1,122.2,138.2,121.7,137,121.7z"/>
<path fill-rule="evenodd" clip-rule="evenodd" fill="#111210" d="M153,138.9h-3.8c-0.4,0-0.7-0.3-0.7-0.7l0-19.5
	c0-0.4,0.3-0.6,0.7-0.6l3.5,0c0.3,0,0.6,0.2,0.7,0.5v3h0.1c1.1-2.7,2.6-3.9,5.2-3.9c1.7,0,3.4,0.6,4.4,2.3c1,1.6,1,4.2,1,6.1v12.3
	c0,0.3-0.4,0.6-0.7,0.6h-3.8c-0.4,0-0.6-0.3-0.7-0.6v-10.6c0-2.1,0.2-5.2-2.4-5.2c-0.9,0-1.8,0.6-2.2,1.6c-0.5,1.2-0.6,2.4-0.6,3.7
	v10.5C153.7,138.6,153.4,138.9,153,138.9"/>
<path fill-rule="evenodd" clip-rule="evenodd" fill="#111210" d="M166.5,137.4c0-1,0.8-1.8,1.9-1.8c1,0,1.9,0.8,1.9,1.8
	c0,1-0.8,1.8-1.9,1.8C167.3,139.2,166.5,138.4,166.5,137.4"/>
<path fill="#111210" d="M206.7,138.9c-0.4,0-0.7-0.3-0.7-0.7v-19.5c0-0.3,0.3-0.6,0.7-0.6h1.4c0.4,0,0.7,0.3,0.7,0.6v2.8
	c1-2.2,2.8-4,5.2-4l0.1,0l0.1,0c2.5,0,4.3,1.8,5,4.5c1-2.6,3-4.5,5.6-4.5l0.1,0l0.2,0c1.8,0,3.6,1.2,4.5,3c0.9,1.7,0.9,4,0.9,5.9
	l0,11.7c0,0.4-0.3,0.7-0.7,0.7h-1.7c-0.4,0-0.7-0.3-0.7-0.6v-11.8c0-1.4,0.1-2.9-0.5-4.1c-0.6-1.3-1.7-2.1-2.9-2.2
	c-1.3,0.1-2.5,1-3.3,2.3c-1,1.7-1,3.2-1,5.2v10.6c0,0.3-0.3,0.6-0.7,0.6h-1.7c-0.4,0-0.7-0.3-0.7-0.7l0-12.5c0-1.1-0.1-2.5-0.6-3.5
	c-0.6-1.2-1.7-1.9-2.9-2c-1.2,0.1-2.4,1-3.1,2c-0.9,1.4-1.1,3-1.1,4.8l0,11.2c0,0.4-0.3,0.7-0.7,0.7H206.7"/>
<path fill="#111210" d="M195.3,139.4c-5.4,0-7.8-5.5-7.8-11c0-5.8,2.8-10.8,8.3-10.8l0.1,0l0.1,0c5.3,0,7.9,5.3,7.9,10.8
	c0,5.8-2.9,10.9-8.4,10.9l-0.1,0L195.3,139.4 M195.7,136.7c1.8-0.1,3.2-1.2,4-3c0.7-1.6,0.9-3.5,0.9-5.3c0-2-0.2-4-1.1-5.7
	c-0.8-1.5-2.2-2.4-3.8-2.5c-1.7,0.1-3.2,1.2-3.9,2.9c-0.7,1.5-0.9,3.5-0.9,5.2c0,1.9,0.2,4.1,1,5.7
	C192.6,135.6,194.1,136.6,195.7,136.7z"/>
<path fill="#111210" d="M178.4,136.6c2.4-0.1,3.7-2,4.2-4.5c0.1-0.3,0.3-0.6,0.7-0.6l1.6,0c0.4,0,0.7,0.3,0.7,0.7
	c-0.7,4.3-3.3,7.2-7,7.2l-0.1,0l-0.1,0c-5.3,0-7.7-5.4-7.7-10.8c0-5.4,2.3-10.9,7.7-10.9l0.1,0l0.1,0c3.7,0,6.4,2.9,6.9,7.1
	c0,0.3-0.3,0.6-0.6,0.6l-1.7,0c-0.3,0-0.6-0.4-0.6-0.7c-0.4-2.4-1.8-4.3-4.1-4.4c-3.6,0.1-4.7,4.6-4.7,8
	C173.9,131.7,174.8,136.5,178.4,136.6"/>
<path fill-rule="evenodd" clip-rule="evenodd" fill="#111210" d="M102.4,129.6c0,1.5,0,2.7-0.7,4c-0.6,1.1-1.6,1.7-2.6,1.7
	c-1.5,0-2.3-1.1-2.3-2.8c0-3.2,2.9-3.8,5.6-3.8V129.6 M106.3,138.9c-0.3,0.2-0.6,0.2-0.9,0.1c-1.3-1-1.5-1.5-2.2-2.5
	c-2.1,2.1-3.6,2.8-6.3,2.8c-3.2,0-5.7-2-5.7-5.9c0-3.1,1.7-5.2,4-6.2c2.1-0.9,4.9-1.1,7.1-1.3v-0.5c0-0.9,0.1-2-0.5-2.8
	c-0.5-0.7-1.3-1-2.1-1c-1.4,0-2.7,0.7-3.1,2.3c-0.1,0.3-0.3,0.7-0.7,0.7l-3.7-0.4c-0.3-0.1-0.7-0.3-0.6-0.8c0.8-4.5,4.9-5.8,8.5-5.8
	c1.8,0,4.3,0.5,5.7,1.9c1.8,1.7,1.7,4,1.7,6.5v5.9c0,1.8,0.7,2.6,1.4,3.5c0.2,0.3,0.3,0.8,0,1C108.4,137,107,138.2,106.3,138.9
	L106.3,138.9z"/>
<path fill-rule="evenodd" clip-rule="evenodd" fill="#111210" d="M52.7,129.6c0,1.5,0,2.7-0.7,4c-0.6,1.1-1.6,1.7-2.6,1.7
	c-1.5,0-2.3-1.1-2.3-2.8c0-3.2,2.9-3.8,5.6-3.8V129.6 M56.5,138.9c-0.3,0.2-0.6,0.2-0.9,0.1c-1.3-1-1.5-1.5-2.2-2.5
	c-2.1,2.1-3.6,2.8-6.3,2.8c-3.2,0-5.7-2-5.7-5.9c0-3.1,1.7-5.2,4-6.2c2.1-0.9,4.9-1.1,7.1-1.3v-0.5c0-0.9,0.1-2-0.5-2.8
	c-0.5-0.7-1.3-1-2.1-1c-1.4,0-2.7,0.7-3.1,2.3c-0.1,0.3-0.3,0.7-0.7,0.7l-3.7-0.4c-0.3-0.1-0.7-0.3-0.6-0.8c0.8-4.5,4.9-5.8,8.5-5.8
	c1.8,0,4.3,0.5,5.7,1.9c1.8,1.7,1.7,4,1.7,6.5v5.9c0,1.8,0.7,2.6,1.4,3.5c0.2,0.3,0.3,0.8,0,1C58.6,137,57.3,138.2,56.5,138.9
	L56.5,138.9z"/>
</svg>
