<?xml version="1.0" encoding="utf-8"?>
<!-- Generator: Adobe Illustrator 13.0.0, SVG Export Plug-In  -->
<!DOCTYPE svg PUBLIC "-//W3C//DTD SVG 1.1//EN" "http://www.w3.org/Graphics/SVG/1.1/DTD/svg11.dtd" [
	<!ENTITY ns_flows "http://ns.adobe.com/Flows/1.0/">
]>
<svg version="1.1"
	 xmlns="http://www.w3.org/2000/svg" xmlns:xlink="http://www.w3.org/1999/xlink" xmlns:a="http://ns.adobe.com/AdobeSVGViewerExtensions/3.0/"
	 x="0px" y="0px" width="32px" height="32px" viewBox="0 -1 32 32" enable-background="new 0 -1 32 32" xml:space="preserve">
<defs>
</defs>
<path opacity="0.15" fill="#FFFFFF" d="M0,2v2h32V2H0z M0,10h32V8H0V10z M0,15l16,16l16-16v-2H0V15z"/>
<path opacity="0.35" d="M0,0v2h32V0H0z M0,8h32V6H0V8z M0,13l16,16l16-16v-1H0V13z"/>
<path fill="#28282D" d="M0,1v2h32V1H0z M0,9h32V7H0V9z M0,14l16,16l16-16v-1H0V14z"/>
</svg>
