<?xml version="1.0" encoding="utf-8"?>
<!-- Generator: Adobe Illustrator 13.0.0, SVG Export Plug-In  -->
<!DOCTYPE svg PUBLIC "-//W3C//DTD SVG 1.1//EN" "http://www.w3.org/Graphics/SVG/1.1/DTD/svg11.dtd" [
	<!ENTITY ns_flows "http://ns.adobe.com/Flows/1.0/">
]>
<svg version="1.1"
	 xmlns="http://www.w3.org/2000/svg" xmlns:xlink="http://www.w3.org/1999/xlink" xmlns:a="http://ns.adobe.com/AdobeSVGViewerExtensions/3.0/"
	 x="0px" y="0px" width="52px" height="50px" viewBox="-2.782 -1.036 52 50" enable-background="new -2.782 -1.036 52 50"
	 xml:space="preserve">
<defs>
</defs>
<path opacity="0.25" d="M18.865,29.443c-0.795-0.545-1.808-0.872-2.913-0.872c-2.551,0-4.619,1.739-4.619,3.884
	s2.068,3.883,4.619,3.883c2.55,0,4.618-1.738,4.618-3.883V17.052l9.973-3.107V26.03c-0.796-0.545-1.808-0.872-2.912-0.872
	c-2.552,0-4.619,1.739-4.619,3.884s2.067,3.883,4.619,3.883c2.551,0,4.618-1.738,4.618-3.883V8.885l-13.384,4.214V29.443z M23.219,0
	C10.395,0,0.001,10.394,0,23.217C0.001,36.04,10.395,46.433,23.219,46.434c12.822-0.001,23.217-10.394,23.218-23.216
	C46.436,10.394,36.041,0,23.219,0z M23.219,44.244C11.604,44.224,2.21,34.829,2.189,23.217C2.21,11.604,11.604,2.209,23.219,2.189
	c11.613,0.021,21.007,9.415,21.029,21.028C44.226,34.829,34.832,44.224,23.219,44.244z"/>
<path fill="#FFFFFF" d="M18.865,30.244c-0.795-0.545-1.808-0.872-2.913-0.872c-2.551,0-4.619,1.739-4.619,3.884
	s2.068,3.883,4.619,3.883c2.55,0,4.618-1.738,4.618-3.883V17.852l9.973-3.107v12.086c-0.796-0.545-1.808-0.872-2.912-0.872
	c-2.552,0-4.619,1.739-4.619,3.884s2.067,3.883,4.619,3.883c2.551,0,4.618-1.738,4.618-3.883V9.685l-13.384,4.214V30.244z
	 M23.219,0.8C10.395,0.8,0.001,11.193,0,24.017c0.001,12.824,10.395,23.216,23.219,23.217c12.822-0.001,23.217-10.394,23.218-23.217
	C46.436,11.193,36.041,0.8,23.219,0.8z M23.219,45.045C11.604,45.024,2.21,35.63,2.189,24.017
	C2.21,12.404,11.604,3.009,23.219,2.989c11.613,0.021,21.007,9.415,21.029,21.028C44.226,35.63,34.832,45.024,23.219,45.045z"/>
</svg>
