<?xml version="1.0" encoding="utf-8"?>
<!-- Generator: Adobe Illustrator 13.0.0, SVG Export Plug-In  -->
<!DOCTYPE svg PUBLIC "-//W3C//DTD SVG 1.1//EN" "http://www.w3.org/Graphics/SVG/1.1/DTD/svg11.dtd" [
	<!ENTITY ns_flows "http://ns.adobe.com/Flows/1.0/">
]>
<svg version="1.1"
	 xmlns="http://www.w3.org/2000/svg" xmlns:xlink="http://www.w3.org/1999/xlink" xmlns:a="http://ns.adobe.com/AdobeSVGViewerExtensions/3.0/"
	 x="0px" y="0px" width="42px" height="39px" viewBox="-3.114 -0.768 42 39" enable-background="new -3.114 -0.768 42 39"
	 xml:space="preserve">
<defs>
</defs>
<path opacity="0.25" d="M14.532,22.685c-0.612-0.419-1.393-0.671-2.243-0.671c-1.965,0-3.558,1.34-3.558,2.991
	c0,1.652,1.593,2.991,3.558,2.991s3.557-1.339,3.557-2.991v-11.87l7.682-2.394v9.315c-0.613-0.421-1.393-0.675-2.243-0.675
	c-1.966,0-3.558,1.343-3.558,2.996c0,1.651,1.592,2.99,3.558,2.99c1.965,0,3.558-1.339,3.558-2.99V6.844L14.532,10.09V22.685z
	 M17.886,0C8.007,0,0.001,8.006,0,17.885c0.001,9.883,8.007,17.888,17.886,17.888c9.877,0,17.885-8.005,17.886-17.888
	C35.771,8.006,27.763,0,17.886,0z M17.886,34.086C8.939,34.072,1.703,26.835,1.687,17.885C1.703,8.939,8.939,1.702,17.886,1.687
	c8.946,0.016,16.183,7.252,16.199,16.199C34.068,26.835,26.832,34.072,17.886,34.086z"/>
<path fill="#FFFFFF" d="M14.532,23.582c-0.612-0.419-1.393-0.671-2.243-0.671c-1.965,0-3.558,1.34-3.558,2.991
	c0,1.652,1.593,2.991,3.558,2.991s3.557-1.339,3.557-2.991V14.036l7.682-2.394v9.311c-0.613-0.42-1.393-0.673-2.243-0.673
	c-1.966,0-3.558,1.341-3.558,2.993c0,1.651,1.592,2.99,3.558,2.99c1.965,0,3.558-1.339,3.558-2.99V7.745l-10.311,3.246V23.582z
	 M17.886,0.901C8.007,0.901,0.001,8.907,0,18.786c0.001,9.878,8.007,17.883,17.886,17.883c9.877,0,17.885-8.005,17.886-17.883
	C35.771,8.907,27.763,0.901,17.886,0.901z M17.886,34.983C8.939,34.968,1.703,27.732,1.687,18.786
	C1.703,9.84,8.939,2.603,17.886,2.587c8.946,0.016,16.183,7.252,16.199,16.199C34.068,27.732,26.832,34.968,17.886,34.983z"/>
</svg>
