<?xml version="1.0" encoding="utf-8"?>
<!-- Generator: Adobe Illustrator 13.0.0, SVG Export Plug-In  -->
<!DOCTYPE svg PUBLIC "-//W3C//DTD SVG 1.1//EN" "http://www.w3.org/Graphics/SVG/1.1/DTD/svg11.dtd" [
	<!ENTITY ns_flows "http://ns.adobe.com/Flows/1.0/">
]>
<svg version="1.1"
	 xmlns="http://www.w3.org/2000/svg" xmlns:xlink="http://www.w3.org/1999/xlink" xmlns:a="http://ns.adobe.com/AdobeSVGViewerExtensions/3.0/"
	 x="0px" y="0px" width="75px" height="72px" viewBox="-5.115 -2.116 75 72" enable-background="new -5.115 -2.116 75 72"
	 xml:space="preserve">
<defs>
</defs>
<path opacity="0.25" d="M26.718,41.701c-1.125-0.771-2.561-1.233-4.125-1.233c-3.613,0-6.542,2.463-6.542,5.5s2.929,5.5,6.542,5.5
	s6.542-2.463,6.542-5.5V24.151l14.124-4.401v17.117c-1.126-0.771-2.56-1.233-4.124-1.233c-3.613,0-6.542,2.463-6.542,5.5
	s2.929,5.5,6.542,5.5c3.612,0,6.541-2.463,6.541-5.5v-28.55l-18.958,5.968V41.701z M32.885,0C14.722,0,0.002,14.72,0,32.883
	c0.002,18.162,14.722,32.882,32.885,32.884c18.16-0.002,32.882-14.722,32.884-32.884C65.767,14.72,51.045,0,32.885,0z
	 M32.885,62.665C16.435,62.636,3.131,49.33,3.1,32.883C3.131,16.435,16.435,3.129,32.885,3.1
	c16.447,0.029,29.753,13.335,29.782,29.783C62.638,49.33,49.332,62.636,32.885,62.665z"/>
<path fill="#FFFFFF" d="M26.718,42.701c-1.125-0.771-2.561-1.233-4.125-1.233c-3.613,0-6.542,2.463-6.542,5.5s2.929,5.5,6.542,5.5
	s6.542-2.463,6.542-5.5V25.151l14.124-4.401v17.117c-1.126-0.771-2.56-1.233-4.124-1.233c-3.613,0-6.542,2.463-6.542,5.5
	s2.929,5.5,6.542,5.5c3.612,0,6.541-2.463,6.541-5.5v-28.55l-18.958,5.968V42.701z M32.885,1C14.722,1,0.002,15.72,0,33.883
	c0.002,18.162,14.722,32.882,32.885,32.884c18.16-0.002,32.882-14.722,32.884-32.884C65.767,15.72,51.045,1,32.885,1z
	 M32.885,63.665C16.435,63.636,3.131,50.33,3.1,33.883C3.131,17.435,16.435,4.129,32.885,4.1
	c16.447,0.029,29.753,13.335,29.782,29.783C62.638,50.33,49.332,63.636,32.885,63.665z"/>
</svg>
