<?xml version="1.0" encoding="utf-8"?>
<!-- Generator: Adobe Illustrator 13.0.0, SVG Export Plug-In  -->
<!DOCTYPE svg PUBLIC "-//W3C//DTD SVG 1.1//EN" "http://www.w3.org/Graphics/SVG/1.1/DTD/svg11.dtd" [
	<!ENTITY ns_flows "http://ns.adobe.com/Flows/1.0/">
]>
<svg version="1.1"
	 xmlns="http://www.w3.org/2000/svg" xmlns:xlink="http://www.w3.org/1999/xlink" xmlns:a="http://ns.adobe.com/AdobeSVGViewerExtensions/3.0/"
	 x="0px" y="0px" width="42px" height="39px" viewBox="-3.116 -0.991 42 39" enable-background="new -3.116 -0.991 42 39"
	 xml:space="preserve">
<defs>
</defs>
<path opacity="0.25" fill="#FFFFFF" d="M17.884,1.36C8.007,1.36,0.001,9.365,0,19.243c0.001,9.876,8.007,17.881,17.884,17.881
	c9.876,0,17.883-8.005,17.884-17.881C35.767,9.365,27.76,1.36,17.884,1.36z M17.884,35.438C8.938,35.422,1.703,28.186,1.687,19.243
	C1.703,10.297,8.938,3.062,17.884,3.046c8.944,0.016,16.181,7.251,16.197,16.197C34.064,28.186,26.828,35.422,17.884,35.438z
	 M23.985,19.69c0-2.689-2.137-3.771-4.938-4.631c-2.024-0.638-3.189-1.165-3.189-2.273c0-0.999,1.055-1.664,2.663-1.664
	c1.58,0,2.745,0.415,3.522,0.832l0.608-2.136c-1.136-0.554-2.551-0.859-4.131-0.859c-3.133,0-5.629,1.497-5.629,4.16
	c0.027,0.998,0.5,1.97,1.081,2.413c-1.524,0.859-2.191,2.191-2.191,3.328c0,2.606,2.303,3.66,5.214,4.602
	c2.302,0.777,3.133,1.358,3.133,2.441c0,1.191-1.164,1.803-2.773,1.803c-1.663,0-3.217-0.666-3.964-1.138l-0.75,2.107
	c1.303,0.86,3.134,1.192,4.826,1.192c2.579,0,5.769-1.136,5.769-4.298c0-1.192-0.666-2.108-1.166-2.523
	C23.236,22.241,23.985,21.159,23.985,19.69z M20.351,21.937c-0.637-0.36-1.885-0.777-3.216-1.248
	c-1.914-0.666-2.662-1.414-2.662-2.356v-0.028c0-0.721,0.416-1.303,1.108-1.747c0.861,0.444,2.386,0.942,3.522,1.387
	c1.554,0.554,2.163,1.331,2.163,2.245C21.267,20.882,20.935,21.548,20.351,21.937z"/>
<path opacity="0.25" d="M17.884,0C8.007,0,0.001,8.005,0,17.882c0.001,9.877,8.007,17.883,17.884,17.884
	c9.876-0.001,17.883-8.007,17.884-17.884C35.767,8.005,27.76,0,17.884,0z M17.884,34.08C8.938,34.063,1.703,26.828,1.687,17.882
	C1.703,8.938,8.938,1.702,17.884,1.686c8.944,0.016,16.181,7.252,16.197,16.196C34.064,26.828,26.828,34.063,17.884,34.08z
	 M23.985,18.331c0-2.69-2.137-3.772-4.938-4.631c-2.024-0.639-3.189-1.166-3.189-2.275c0-0.999,1.055-1.664,2.663-1.664
	c1.58,0,2.745,0.416,3.522,0.832l0.608-2.136c-1.136-0.555-2.551-0.859-4.131-0.859c-3.133,0-5.629,1.497-5.629,4.16
	c0.027,0.999,0.5,1.969,1.081,2.413c-1.524,0.859-2.191,2.19-2.191,3.328c0,2.607,2.303,3.661,5.214,4.604
	c2.302,0.777,3.133,1.359,3.133,2.441c0,1.191-1.164,1.803-2.773,1.803c-1.663,0-3.217-0.666-3.964-1.138l-0.75,2.107
	c1.303,0.859,3.134,1.193,4.826,1.193c2.579,0,5.769-1.137,5.769-4.299c0-1.192-0.666-2.108-1.166-2.523
	C23.236,20.882,23.985,19.801,23.985,18.331z M20.351,20.577c-0.637-0.359-1.885-0.776-3.216-1.247
	c-1.914-0.667-2.662-1.416-2.662-2.357v-0.029c0-0.721,0.416-1.303,1.108-1.747c0.861,0.443,2.386,0.942,3.522,1.387
	c1.554,0.554,2.163,1.33,2.163,2.246C21.267,19.524,20.935,20.189,20.351,20.577z"/>
<path fill="#8B9A9D" d="M17.884,0.598C8.007,0.598,0.001,8.604,0,18.481c0.001,9.877,8.007,17.882,17.884,17.883
	c9.876-0.001,17.883-8.006,17.884-17.883C35.767,8.604,27.76,0.598,17.884,0.598z M17.884,34.678
	C8.938,34.662,1.703,27.426,1.687,18.481C1.703,9.536,8.938,2.3,17.884,2.285C26.828,2.3,34.064,9.536,34.081,18.481
	C34.064,27.426,26.828,34.662,17.884,34.678z M23.985,18.929c0-2.689-2.137-3.771-4.938-4.631c-2.024-0.638-3.189-1.164-3.189-2.273
	c0-0.999,1.055-1.664,2.663-1.664c1.58,0,2.745,0.416,3.522,0.832l0.608-2.136c-1.136-0.554-2.551-0.859-4.131-0.859
	c-3.133,0-5.629,1.497-5.629,4.16c0.027,0.997,0.5,1.969,1.081,2.413c-1.524,0.859-2.191,2.19-2.191,3.328
	c0,2.606,2.303,3.66,5.214,4.603c2.302,0.777,3.133,1.359,3.133,2.441c0,1.192-1.164,1.803-2.773,1.803
	c-1.663,0-3.217-0.667-3.964-1.137l-0.75,2.107c1.303,0.859,3.134,1.191,4.826,1.191c2.579,0,5.769-1.137,5.769-4.298
	c0-1.192-0.666-2.108-1.166-2.523C23.236,21.48,23.985,20.398,23.985,18.929z M20.351,21.176c-0.637-0.36-1.885-0.777-3.216-1.248
	c-1.914-0.666-2.662-1.415-2.662-2.357v-0.028c0-0.721,0.416-1.303,1.108-1.747c0.861,0.444,2.386,0.942,3.522,1.386
	c1.554,0.554,2.163,1.331,2.163,2.246C21.267,20.122,20.935,20.787,20.351,21.176z"/>
</svg>
