<?xml version="1.0" encoding="utf-8"?>
<!-- Generator: Adobe Illustrator 13.0.0, SVG Export Plug-In  -->
<!DOCTYPE svg PUBLIC "-//W3C//DTD SVG 1.1//EN" "http://www.w3.org/Graphics/SVG/1.1/DTD/svg11.dtd" [
	<!ENTITY ns_flows "http://ns.adobe.com/Flows/1.0/">
]>
<svg version="1.1"
	 xmlns="http://www.w3.org/2000/svg" xmlns:xlink="http://www.w3.org/1999/xlink" xmlns:a="http://ns.adobe.com/AdobeSVGViewerExtensions/3.0/"
	 x="0px" y="0px" width="75px" height="72px" viewBox="-5.115 -2.016 75 72" enable-background="new -5.115 -2.016 75 72"
	 xml:space="preserve">
<defs>
</defs>
<path opacity="0.25" fill="#FFFFFF" d="M32.885,2.5C14.722,2.5,0.002,17.221,0,35.383c0.002,18.16,14.722,32.88,32.885,32.882
	c18.16-0.002,32.882-14.722,32.884-32.882C65.767,17.221,51.045,2.5,32.885,2.5z M32.885,65.164
	C16.435,65.134,3.131,51.829,3.1,35.383C3.131,18.936,16.435,5.629,32.885,5.601c16.447,0.029,29.753,13.335,29.782,29.783
	C62.638,51.829,49.332,65.134,32.885,65.164z M44.103,36.206c0-4.945-3.927-6.934-9.077-8.515c-3.723-1.173-5.864-2.142-5.864-4.182
	c0-1.836,1.938-3.06,4.896-3.06c2.906,0,5.048,0.765,6.477,1.53l1.121-3.927c-2.091-1.02-4.691-1.581-7.598-1.581
	c-5.763,0-10.352,2.753-10.352,7.649c0.051,1.836,0.918,3.621,1.989,4.437c-2.805,1.581-4.029,4.029-4.029,6.12
	c0,4.791,4.233,6.729,9.587,8.463c4.232,1.428,5.762,2.499,5.762,4.488c0,2.192-2.142,3.314-5.099,3.314
	c-3.06,0-5.916-1.225-7.292-2.091l-1.377,3.875c2.396,1.581,5.762,2.193,8.873,2.193c4.743,0,10.607-2.091,10.607-7.904
	c0-2.192-1.224-3.876-2.142-4.641C42.726,40.896,44.103,38.908,44.103,36.206z M37.422,40.335c-1.173-0.662-3.468-1.428-5.915-2.295
	c-3.519-1.224-4.896-2.599-4.896-4.332v-0.051c0-1.326,0.765-2.396,2.04-3.212c1.581,0.816,4.386,1.733,6.476,2.55
	c2.856,1.02,3.978,2.447,3.978,4.128C39.104,38.398,38.493,39.622,37.422,40.335z"/>
<path opacity="0.25" d="M32.885,0C14.722,0,0.002,14.72,0,32.883c0.002,18.163,14.722,32.882,32.885,32.884
	c18.16-0.002,32.882-14.722,32.884-32.884C65.767,14.72,51.045,0,32.885,0z M32.885,62.666C16.435,62.636,3.131,49.331,3.1,32.883
	C3.131,16.435,16.435,3.129,32.885,3.1c16.447,0.029,29.753,13.335,29.782,29.783C62.638,49.331,49.332,62.636,32.885,62.666z
	 M44.103,33.707c0-4.946-3.927-6.935-9.077-8.516c-3.723-1.173-5.864-2.142-5.864-4.182c0-1.836,1.938-3.06,4.896-3.06
	c2.906,0,5.048,0.765,6.477,1.53l1.121-3.927c-2.091-1.02-4.691-1.581-7.598-1.581c-5.763,0-10.352,2.753-10.352,7.649
	c0.051,1.836,0.918,3.621,1.989,4.437c-2.805,1.581-4.029,4.029-4.029,6.12c0,4.793,4.233,6.732,9.587,8.465
	c4.232,1.428,5.762,2.499,5.762,4.488c0,2.192-2.142,3.314-5.099,3.314c-3.06,0-5.916-1.225-7.292-2.091l-1.377,3.875
	c2.396,1.581,5.762,2.193,8.873,2.193c4.743,0,10.607-2.091,10.607-7.904c0-2.192-1.224-3.876-2.142-4.641
	C42.726,38.398,44.103,36.41,44.103,33.707z M37.422,37.837c-1.173-0.662-3.468-1.428-5.915-2.295
	c-3.519-1.224-4.896-2.601-4.896-4.334v-0.051c0-1.326,0.765-2.396,2.04-3.212c1.581,0.816,4.386,1.733,6.476,2.55
	c2.856,1.02,3.978,2.447,3.978,4.13C39.104,35.899,38.493,37.124,37.422,37.837z"/>
<path fill="#8B9A9D" d="M32.885,1.1C14.722,1.1,0.002,15.82,0,33.983c0.002,18.162,14.722,32.882,32.885,32.884
	c18.16-0.002,32.882-14.722,32.884-32.884C65.767,15.82,51.045,1.1,32.885,1.1z M32.885,63.765
	C16.435,63.736,3.131,50.43,3.1,33.983C3.131,17.535,16.435,4.229,32.885,4.2c16.447,0.029,29.753,13.335,29.782,29.783
	C62.638,50.43,49.332,63.736,32.885,63.765z M44.103,34.807c0-4.946-3.927-6.935-9.077-8.516c-3.723-1.173-5.864-2.142-5.864-4.182
	c0-1.836,1.938-3.06,4.896-3.06c2.906,0,5.048,0.765,6.477,1.53l1.121-3.927c-2.091-1.02-4.691-1.581-7.598-1.581
	c-5.763,0-10.352,2.753-10.352,7.649c0.051,1.836,0.918,3.621,1.989,4.437c-2.805,1.581-4.029,4.029-4.029,6.12
	c0,4.793,4.233,6.731,9.587,8.465c4.232,1.428,5.762,2.499,5.762,4.488c0,2.192-2.142,3.314-5.099,3.314
	c-3.06,0-5.916-1.225-7.292-2.091l-1.377,3.875c2.396,1.581,5.762,2.193,8.873,2.193c4.743,0,10.607-2.091,10.607-7.904
	c0-2.192-1.224-3.876-2.142-4.641C42.726,39.498,44.103,37.509,44.103,34.807z M37.422,38.937c-1.173-0.662-3.468-1.428-5.915-2.295
	c-3.519-1.224-4.896-2.601-4.896-4.334v-0.051c0-1.326,0.765-2.396,2.04-3.212c1.581,0.816,4.386,1.733,6.476,2.55
	c2.856,1.02,3.978,2.447,3.978,4.13C39.104,37,38.493,38.223,37.422,38.937z"/>
</svg>
