<?xml version="1.0" encoding="utf-8"?>
<!-- Generator: Adobe Illustrator 13.0.0, SVG Export Plug-In  -->
<!DOCTYPE svg PUBLIC "-//W3C//DTD SVG 1.1//EN" "http://www.w3.org/Graphics/SVG/1.1/DTD/svg11.dtd" [
	<!ENTITY ns_flows "http://ns.adobe.com/Flows/1.0/">
]>
<svg version="1.1"
	 xmlns="http://www.w3.org/2000/svg" xmlns:xlink="http://www.w3.org/1999/xlink" xmlns:a="http://ns.adobe.com/AdobeSVGViewerExtensions/3.0/"
	 x="0px" y="0px" width="52px" height="50px" viewBox="-2.783 -0.955 52 50" enable-background="new -2.783 -0.955 52 50"
	 xml:space="preserve">
<defs>
</defs>
<path opacity="0.25" fill="#FFFFFF" d="M23.218,1.766C10.395,1.766,0.001,12.158,0,24.982c0.001,12.822,10.395,23.214,23.218,23.215
	c12.821-0.001,23.216-10.394,23.217-23.215C46.434,12.158,36.039,1.766,23.218,1.766z M23.218,46.008
	C11.604,45.987,2.21,36.593,2.189,24.982C2.21,13.369,11.604,3.975,23.218,3.954c11.612,0.021,21.006,9.415,21.028,21.028
	C44.224,36.593,34.83,45.987,23.218,46.008z M31.138,25.562c0-3.491-2.773-4.896-6.409-6.012c-2.628-0.828-4.14-1.512-4.14-2.952
	c0-1.296,1.368-2.16,3.456-2.16c2.051,0,3.565,0.54,4.573,1.08l0.791-2.773c-1.476-0.72-3.312-1.116-5.364-1.116
	c-4.068,0-7.309,1.944-7.309,5.4c0.036,1.296,0.648,2.556,1.404,3.133c-1.98,1.116-2.845,2.844-2.845,4.32
	c0,3.383,2.989,4.751,6.77,5.975c2.988,1.009,4.067,1.765,4.067,3.169c0,1.548-1.511,2.341-3.6,2.341
	c-2.159,0-4.176-0.865-5.147-1.477l-0.972,2.736c1.692,1.116,4.068,1.548,6.265,1.548c3.348,0,7.488-1.476,7.488-5.58
	c0-1.548-0.864-2.737-1.513-3.276C30.166,28.874,31.138,27.47,31.138,25.562z M26.42,28.479c-0.827-0.468-2.447-1.009-4.176-1.62
	c-2.484-0.864-3.456-1.835-3.456-3.059v-0.036c0-0.937,0.54-1.692,1.439-2.269c1.117,0.577,3.097,1.224,4.572,1.8
	c2.018,0.72,2.81,1.728,2.81,2.915C27.61,27.11,27.178,27.975,26.42,28.479z"/>
<path opacity="0.25" d="M23.218,0C10.395,0,0.001,10.393,0,23.216C0.001,36.04,10.395,46.433,23.218,46.434
	c12.821-0.001,23.216-10.394,23.217-23.217C46.434,10.393,36.039,0,23.218,0z M23.218,44.244
	C11.604,44.224,2.21,34.829,2.189,23.216C2.21,11.604,11.604,2.209,23.218,2.189c11.612,0.02,21.006,9.415,21.028,21.027
	C44.224,34.829,34.83,44.224,23.218,44.244z M31.138,23.798c0-3.492-2.773-4.896-6.409-6.012c-2.628-0.829-4.14-1.513-4.14-2.952
	c0-1.297,1.368-2.161,3.456-2.161c2.051,0,3.565,0.54,4.573,1.081l0.791-2.772c-1.476-0.72-3.312-1.116-5.364-1.116
	c-4.068,0-7.309,1.944-7.309,5.401c0.036,1.296,0.648,2.557,1.404,3.132c-1.98,1.116-2.845,2.844-2.845,4.321
	c0,3.384,2.989,4.752,6.77,5.976c2.988,1.009,4.067,1.765,4.067,3.169c0,1.548-1.511,2.341-3.6,2.341
	c-2.159,0-4.176-0.865-5.147-1.477l-0.972,2.736c1.692,1.116,4.068,1.548,6.265,1.548c3.348,0,7.488-1.476,7.488-5.58
	c0-1.548-0.864-2.737-1.513-3.276C30.166,27.11,31.138,25.706,31.138,23.798z M26.42,26.715c-0.827-0.468-2.447-1.009-4.176-1.621
	c-2.484-0.865-3.456-1.837-3.456-3.06v-0.037c0-0.936,0.54-1.692,1.439-2.268c1.117,0.576,3.097,1.223,4.572,1.8
	c2.018,0.72,2.81,1.728,2.81,2.917C27.61,25.347,27.178,26.211,26.42,26.715z"/>
<path fill="#8B9A9D" d="M23.218,0.777C10.395,0.777,0.001,11.169,0,23.993C0.001,36.816,10.395,47.209,23.218,47.21
	c12.821-0.001,23.216-10.394,23.217-23.217C46.434,11.169,36.039,0.777,23.218,0.777z M23.218,45.021
	C11.604,45,2.21,35.605,2.189,23.993C2.21,12.38,11.604,2.986,23.218,2.965C34.83,2.986,44.224,12.38,44.246,23.993
	C44.224,35.605,34.83,45,23.218,45.021z M31.138,24.574c0-3.491-2.773-4.896-6.409-6.012c-2.628-0.828-4.14-1.512-4.14-2.952
	c0-1.296,1.368-2.16,3.456-2.16c2.051,0,3.565,0.54,4.573,1.08l0.791-2.772c-1.476-0.72-3.312-1.116-5.364-1.116
	c-4.068,0-7.309,1.944-7.309,5.4c0.036,1.296,0.648,2.557,1.404,3.133c-1.98,1.116-2.845,2.844-2.845,4.32
	c0,3.384,2.989,4.752,6.77,5.976c2.988,1.009,4.067,1.765,4.067,3.169c0,1.548-1.511,2.341-3.6,2.341
	c-2.159,0-4.176-0.865-5.147-1.477l-0.972,2.736c1.692,1.116,4.068,1.548,6.265,1.548c3.348,0,7.488-1.476,7.488-5.58
	c0-1.548-0.864-2.737-1.513-3.276C30.166,27.887,31.138,26.482,31.138,24.574z M26.42,27.491c-0.827-0.468-2.447-1.009-4.176-1.62
	c-2.484-0.864-3.456-1.836-3.456-3.061v-0.036c0-0.937,0.54-1.692,1.439-2.269c1.117,0.577,3.097,1.224,4.572,1.8
	c2.018,0.72,2.81,1.728,2.81,2.916C27.61,26.123,27.178,26.987,26.42,27.491z"/>
</svg>
