<?xml version="1.0" encoding="utf-8"?>
<!-- Generator: Adobe Illustrator 13.0.0, SVG Export Plug-In  -->
<!DOCTYPE svg PUBLIC "-//W3C//DTD SVG 1.1//EN" "http://www.w3.org/Graphics/SVG/1.1/DTD/svg11.dtd" [
	<!ENTITY ns_flows "http://ns.adobe.com/Flows/1.0/">
]>
<svg version="1.1"
	 xmlns="http://www.w3.org/2000/svg" xmlns:xlink="http://www.w3.org/1999/xlink" xmlns:a="http://ns.adobe.com/AdobeSVGViewerExtensions/3.0/"
	 x="0px" y="0px" width="42px" height="39px" viewBox="-2.8 -0.3 42 39" enable-background="new -2.8 -0.3 42 39"
	 xml:space="preserve">
<defs>
</defs>
<path opacity="0.25" fill="#FFFFFF" d="M18.2,1.5C8.2,1.5,0,9.6,0,19.7c0,10.1,8.2,18.2,18.2,18.2c10.1,0,18.2-8.2,18.2-18.2
	C36.4,9.6,28.3,1.5,18.2,1.5z M18.2,36.2c-9.1,0-16.5-7.4-16.5-16.5c0-9.1,7.4-16.5,16.5-16.5c9.1,0,16.5,7.4,16.5,16.5
	C34.7,28.8,27.3,36.2,18.2,36.2z M24.4,22.7c-0.9-0.6-2.9-1.2-3.2-1.3c-0.3-0.1-0.5-0.2-0.5-0.2s-0.6-0.5-0.7-0.6
	c-0.1,0,0-0.9,0-0.9s0.4-0.8,0.3-1c0.3,0,0.4-0.2,0.6-0.8c0.4-1.2-0.1-1.1-0.1-1.1s0.3-0.8,0.2-1.6c0-0.7,0-1.1-0.3-1.3
	c-0.2-0.3-0.7-0.3-0.7-0.3s-0.1-0.5-0.6-0.6C19,13,18,13,17.5,13.2c-0.5,0.2-1.4,0.6-1.6,1.1c-0.2,0.5-0.5,1.4-0.5,1.7
	c0.1,0.3,0.2,0.9,0.2,0.9s-0.5-0.1-0.1,1.1c0.3,1.2,0.6,0.7,0.6,0.7s0.3,0.9,0.4,1c0.1,0.1,0,0.7,0,0.7l-0.7,0.7c0,0-3,1.1-3.5,1.4
	c-0.5,0.3-0.9,1.9-0.8,3.6c4,1.5,10.1,1.1,13.7,0C25.2,25.6,25.3,23.3,24.4,22.7z M12.8,21.5c0.9-0.4,1.7-0.6,1.9-0.7
	c0-0.1-0.8-0.4-0.8-0.5c0-0.1,0.2-0.3,0.1-0.4c-0.1-0.1-0.8-0.6-0.8-0.6c-0.1-0.1,0-0.4,0-0.4s0.1,0.1,0.2,0
	c0.1-0.1,0.8-0.9,0.8-1.6c-0.1-0.8-1-2.7-1.6-3.1c-0.6-0.4-1.2-0.4-1.4-0.3c-0.2,0.1-0.8,0-1,0.3s-0.7,1.2-0.8,1.7
	c-0.1,0.5-0.8,1.8-1,2c-0.2,0.2,0.4,0,0.5-0.1c0.1-0.1-0.2,1.1-0.2,1.1L9,18.7l0.2,0.6l0.2,0.5c0,0-0.3,0.1-0.5,0.3
	c-0.2,0.2-0.3,0.4-0.3,0.4S7.3,20.7,7,21c-0.3,0.3-0.7,1.4-0.9,3c-0.1,0.1,3.6,1,4.6,0.9C10.5,22.8,11.7,22,12.8,21.5z M29.4,21
	c-0.3-0.3-1.5-0.5-1.5-0.5s-0.1-0.1-0.3-0.4c-0.2-0.2-0.5-0.3-0.5-0.3l0.2-0.5l0.2-0.6l0.4-0.2c0,0-0.4-0.9-0.3-0.7
	c0.1,0.1,0.7,0,0.5-0.2s-0.9-1.3-1-1.7c-0.1-0.5-0.6-1.4-0.8-1.7c-0.3-0.2-0.9-0.2-1-0.3c-0.2-0.1-1-0.1-1.6,0.3
	c-0.6,0.4-1.3,2.1-1.4,2.9c-0.1,0.8,0.6,1.8,0.7,1.8c0.1,0.1,0.2,0,0.2,0s0.1,0.4,0,0.4c-0.1,0.1-0.8,0.5-0.8,0.6
	c-0.1,0.1,0.1,0.3,0.1,0.4c0,0.1-0.8,0.4-0.8,0.5c0.1,0.1,0.7,0.3,1.5,0.6c1.3,0.5,2.9,1.4,2.5,3.6c1,0.1,4.9-1.7,4.8-1.8
	C30.3,21.6,29.7,21.3,29.4,21z"/>
<path opacity="0.25" d="M18.2,0C8.2,0,0,8.2,0,18.2c0,10.1,8.2,18.2,18.2,18.2c10.1,0,18.2-8.2,18.2-18.2C36.4,8.2,28.3,0,18.2,0z
	 M18.2,34.7c-9.1,0-16.5-7.4-16.5-16.5c0-9.1,7.4-16.5,16.5-16.5c9.1,0,16.5,7.4,16.5,16.5C34.7,27.3,27.3,34.7,18.2,34.7z
	 M24.4,21.2c-0.9-0.6-2.9-1.2-3.2-1.3c-0.3-0.1-0.5-0.2-0.5-0.2s-0.6-0.5-0.7-0.6c-0.1,0,0-0.9,0-0.9s0.4-0.8,0.3-1
	c0.3,0,0.4-0.2,0.6-0.8c0.4-1.2-0.1-1.1-0.1-1.1s0.3-0.8,0.2-1.6c0-0.7,0-1.1-0.3-1.3c-0.2-0.3-0.7-0.3-0.7-0.3s-0.1-0.5-0.6-0.6
	c-0.5-0.1-1.5-0.1-2,0.1c-0.5,0.2-1.4,0.6-1.6,1.1c-0.2,0.5-0.5,1.4-0.5,1.7c0.1,0.3,0.2,0.9,0.2,0.9s-0.5-0.1-0.1,1.1
	c0.3,1.2,0.6,0.7,0.6,0.7s0.3,0.9,0.4,1c0.1,0.1,0,0.7,0,0.7l-0.7,0.7c0,0-3,1.1-3.5,1.4c-0.5,0.3-0.9,1.9-0.8,3.6
	c4,1.5,10.1,1.1,13.7,0C25.2,24.1,25.3,21.8,24.4,21.2z M12.8,20.1c0.9-0.4,1.7-0.6,1.9-0.7c0-0.1-0.8-0.4-0.8-0.5
	c0-0.1,0.2-0.3,0.1-0.4c-0.1-0.1-0.8-0.6-0.8-0.6c-0.1-0.1,0-0.4,0-0.4s0.1,0.1,0.2,0c0.1-0.1,0.8-0.9,0.8-1.6s-1-2.7-1.6-3.1
	c-0.6-0.4-1.2-0.4-1.4-0.3c-0.2,0.1-0.8,0-1,0.3c-0.3,0.2-0.7,1.2-0.8,1.7c-0.1,0.5-0.8,1.8-1,2c-0.2,0.2,0.4,0,0.5-0.1
	c0.1-0.1-0.2,1.1-0.2,1.1L9,17.2l0.2,0.6l0.2,0.5c0,0-0.3,0.1-0.5,0.3s-0.3,0.4-0.3,0.4S7.3,19.2,7,19.5c-0.3,0.3-0.7,1.4-0.9,3
	c-0.1,0.1,3.6,1,4.6,0.9C10.5,21.3,11.7,20.5,12.8,20.1z M29.4,19.5c-0.3-0.3-1.5-0.5-1.5-0.5s-0.1-0.1-0.3-0.4
	c-0.2-0.2-0.5-0.3-0.5-0.3l0.2-0.5l0.2-0.6l0.4-0.2c0,0-0.4-0.9-0.3-0.7c0.1,0.1,0.7,0,0.5-0.2c-0.2-0.2-0.9-1.3-1-1.7
	c-0.1-0.5-0.6-1.4-0.8-1.7c-0.3-0.2-0.9-0.2-1-0.3c-0.2-0.1-1-0.1-1.6,0.3c-0.6,0.4-1.3,2.1-1.4,2.9c-0.1,0.8,0.6,1.8,0.7,1.8
	c0.1,0.1,0.2,0,0.2,0s0.1,0.4,0,0.4c-0.1,0.1-0.8,0.5-0.8,0.6c-0.1,0.1,0.1,0.3,0.1,0.4c0,0.1-0.8,0.4-0.8,0.5
	c0.1,0.1,0.7,0.3,1.5,0.6c1.3,0.5,2.9,1.4,2.5,3.6c1,0.1,4.9-1.7,4.8-1.8C30.3,20.2,29.7,19.8,29.4,19.5z"/>
<path fill="#8B9A9D" d="M18.2,0.7C8.2,0.7,0,8.9,0,19C0,29,8.2,37.2,18.2,37.2c10.1,0,18.2-8.2,18.2-18.2
	C36.4,8.9,28.3,0.7,18.2,0.7z M18.2,35.5C9.1,35.4,1.7,28.1,1.7,19c0-9.1,7.4-16.5,16.5-16.5c9.1,0,16.5,7.4,16.5,16.5
	C34.7,28.1,27.3,35.4,18.2,35.5z M24.4,22c-0.9-0.6-2.9-1.2-3.2-1.3c-0.3-0.1-0.5-0.2-0.5-0.2s-0.6-0.5-0.7-0.6c-0.1,0,0-0.9,0-0.9
	s0.4-0.8,0.3-1c0.3,0,0.4-0.2,0.6-0.8c0.4-1.2-0.1-1.1-0.1-1.1s0.3-0.8,0.2-1.6c0-0.7,0-1.1-0.3-1.3c-0.2-0.3-0.7-0.3-0.7-0.3
	s-0.1-0.5-0.6-0.6c-0.5-0.1-1.5-0.1-2,0.1c-0.5,0.2-1.4,0.6-1.6,1.1c-0.2,0.5-0.5,1.4-0.5,1.7c0.1,0.3,0.2,0.9,0.2,0.9
	s-0.5-0.1-0.1,1.1c0.3,1.2,0.6,0.7,0.6,0.7s0.3,0.9,0.4,1c0.1,0.1,0,0.7,0,0.7l-0.7,0.7c0,0-3,1.1-3.5,1.4c-0.5,0.3-0.9,1.9-0.8,3.6
	c4,1.5,10.1,1.1,13.7,0C25.2,24.8,25.3,22.5,24.4,22z"/>
<path fill="#99AAAD" d="M12.8,20.8c0.9-0.4,1.7-0.6,1.9-0.7c0-0.1-0.8-0.4-0.8-0.5c0-0.1,0.2-0.3,0.1-0.4c-0.1-0.1-0.8-0.6-0.8-0.6
	c-0.1-0.1,0-0.4,0-0.4s0.1,0.1,0.2,0c0.1-0.1,0.8-0.9,0.8-1.6c-0.1-0.8-1-2.7-1.6-3.1c-0.6-0.4-1.2-0.4-1.4-0.3
	c-0.2,0.1-0.8,0-1,0.3c-0.3,0.2-0.7,1.2-0.8,1.7c-0.1,0.5-0.8,1.8-1,2c-0.2,0.2,0.4,0,0.5-0.1c0.1-0.1-0.2,1.1-0.2,1.1L9,17.9
	l0.2,0.6L9.4,19c0,0-0.3,0.1-0.5,0.3c-0.2,0.2-0.3,0.4-0.3,0.4S7.3,19.9,7,20.2c-0.3,0.3-0.7,1.4-0.9,3c-0.1,0.1,3.6,1,4.6,0.9
	C10.5,22,11.7,21.2,12.8,20.8z"/>
<path fill="#A0B2B5" d="M23.2,20.7c-0.8-0.3-1.3-0.5-1.5-0.6c0-0.1,0.8-0.4,0.8-0.5c0-0.1-0.2-0.3-0.1-0.4c0.1-0.1,0.8-0.6,0.8-0.6
	s0-0.4,0-0.4s-0.1,0.1-0.2,0c-0.1-0.1-0.8-1.1-0.7-1.8c0.1-0.8,0.8-2.5,1.4-2.9c0.6-0.4,1.4-0.4,1.6-0.3c0.2,0.1,0.8,0,1,0.3
	c0.3,0.2,0.7,1.2,0.8,1.7c0.1,0.5,0.8,1.5,1,1.7c0.2,0.2-0.4,0.3-0.5,0.2c-0.1-0.1,0.3,0.7,0.3,0.7l-0.4,0.2l-0.2,0.6L27,19
	c0,0,0.3,0.1,0.5,0.3c0.2,0.2,0.3,0.4,0.3,0.4s1.2,0.3,1.5,0.5c0.3,0.3,0.8,0.7,1.1,2.2c0.1,0.1-3.8,1.9-4.8,1.8
	C26.2,22.1,24.5,21.2,23.2,20.7z"/>
</svg>
