<?xml version="1.0" encoding="utf-8"?>
<!-- Generator: Adobe Illustrator 13.0.0, SVG Export Plug-In  -->
<!DOCTYPE svg PUBLIC "-//W3C//DTD SVG 1.1//EN" "http://www.w3.org/Graphics/SVG/1.1/DTD/svg11.dtd" [
	<!ENTITY ns_flows "http://ns.adobe.com/Flows/1.0/">
]>
<svg version="1.1"
	 xmlns="http://www.w3.org/2000/svg" xmlns:xlink="http://www.w3.org/1999/xlink" xmlns:a="http://ns.adobe.com/AdobeSVGViewerExtensions/3.0/"
	 x="0px" y="0px" width="52px" height="50px" viewBox="-2.9 -1.4 52 50" enable-background="new -2.9 -1.4 52 50"
	 xml:space="preserve">
<defs>
</defs>
<path opacity="0.25" fill="#FFFFFF" d="M23.1,1.1C10.3,1.1,0,11.4,0,24.2c0,12.7,10.3,23,23.1,23.1c12.7,0,23-10.3,23.1-23.1
	C46.1,11.4,35.8,1.1,23.1,1.1z M23.1,45C11.5,45,2.2,35.7,2.2,24.2c0-11.5,9.3-20.9,20.9-20.9c11.5,0,20.9,9.3,20.9,20.9
	C43.9,35.7,34.6,45,23.1,45z M30.9,28c-1.1-0.7-3.7-1.5-4-1.7c-0.4-0.2-0.6-0.3-0.6-0.3s-0.7-0.7-0.9-0.7c-0.2-0.1-0.1-1.2-0.1-1.2
	s0.5-1,0.4-1.2c0.3,0,0.5-0.3,0.7-1c0.5-1.5-0.1-1.4-0.1-1.4s0.3-1.1,0.3-2c-0.1-0.9,0-1.4-0.3-1.7c-0.3-0.3-0.9-0.4-0.9-0.4
	s-0.1-0.6-0.7-0.7c-0.6-0.1-1.9-0.1-2.5,0.1c-0.6,0.3-1.7,0.8-2,1.4s-0.7,1.7-0.6,2.1c0.1,0.4,0.2,1.1,0.2,1.1s-0.6-0.2-0.2,1.4
	c0.4,1.5,0.8,0.9,0.8,0.9s0.3,1.1,0.5,1.3c0.1,0.2,0,0.9,0,0.9L20,25.9c0,0-3.8,1.4-4.5,1.8c-0.6,0.4-1.1,2.4-1,4.5
	c5,1.8,12.8,1.4,17.4,0C31.9,31.6,32,28.7,30.9,28z M16.2,26.5c1.2-0.5,2.2-0.7,2.4-0.8c0-0.1-1-0.5-1-0.6c0-0.1,0.3-0.4,0.2-0.5
	c-0.1-0.2-1-0.7-1.1-0.8c-0.1-0.1,0-0.5,0-0.5s0.1,0.1,0.3,0c0.2-0.1,1-1.1,1-2c-0.1-1-1.3-3.4-2.1-3.9s-1.5-0.5-1.7-0.4
	c-0.2,0.1-1,0-1.3,0.3c-0.3,0.3-0.9,1.5-1,2.1c-0.1,0.6-1,2.3-1.3,2.5s0.5,0,0.6-0.1c0.2-0.2-0.3,1.4-0.3,1.4l0.5-0.3l0.3,0.7
	l0.2,0.6c0,0-0.3,0.1-0.6,0.4s-0.4,0.5-0.4,0.5s-1.5,0.3-1.9,0.7c-0.4,0.4-0.8,1.8-1.1,3.8c-0.1,0.1,4.6,1.2,5.8,1.1
	C13.3,28.1,14.8,27.1,16.2,26.5z M37.2,25.8c-0.4-0.4-1.9-0.7-1.9-0.7s-0.1-0.2-0.4-0.5c-0.3-0.3-0.6-0.4-0.6-0.4l0.2-0.6l0.3-0.7
	l0.5-0.3c0,0-0.5-1.1-0.4-0.9c0.2,0.2,0.9,0,0.6-0.2c-0.2-0.2-1.1-1.6-1.3-2.2c-0.1-0.6-0.7-1.8-1-2.1s-1.1-0.2-1.3-0.3
	c-0.2-0.1-1.2-0.1-2,0.4c-0.8,0.5-1.7,2.7-1.8,3.6s0.8,2.2,0.9,2.3c0.2,0.1,0.3,0,0.3,0s0.1,0.5,0,0.5c-0.1,0.1-1,0.6-1.1,0.8
	c-0.1,0.2,0.2,0.4,0.2,0.5c0,0.1-1,0.6-1,0.6c0.1,0.1,0.9,0.3,1.8,0.7c1.6,0.6,3.7,1.7,3.2,4.5c1.2,0.1,6.2-2.2,6-2.3
	C38.3,26.6,37.6,26.1,37.2,25.8z"/>
<path opacity="0.25" d="M23.1,0C10.3,0,0,10.3,0,23.1c0,12.7,10.3,23,23.1,23.1c12.7,0,23-10.3,23.1-23.1C46.1,10.3,35.8,0,23.1,0z
	 M23.1,43.9c-11.5,0-20.9-9.3-20.9-20.9c0-11.5,9.3-20.9,20.9-20.9c11.5,0,20.9,9.3,20.9,20.9C43.9,34.6,34.6,43.9,23.1,43.9z
	 M30.9,26.9c-1.1-0.7-3.7-1.5-4-1.7c-0.4-0.2-0.6-0.3-0.6-0.3s-0.7-0.7-0.9-0.7c-0.2-0.1-0.1-1.2-0.1-1.2s0.5-1,0.4-1.2
	c0.3,0,0.5-0.3,0.7-1c0.5-1.5-0.1-1.4-0.1-1.4s0.3-1.1,0.3-2c-0.1-0.9,0-1.4-0.3-1.7c-0.3-0.3-0.9-0.4-0.9-0.4s-0.1-0.6-0.7-0.7
	c-0.6-0.1-1.9-0.1-2.5,0.1c-0.6,0.3-1.7,0.8-2,1.4c-0.3,0.6-0.7,1.7-0.6,2.1c0.1,0.4,0.2,1.1,0.2,1.1s-0.6-0.2-0.2,1.4
	s0.8,0.9,0.8,0.9s0.3,1.1,0.5,1.3s0,0.9,0,0.9L20,24.8c0,0-3.8,1.4-4.5,1.8c-0.6,0.4-1.1,2.4-1,4.5c5,1.8,12.8,1.4,17.4,0
	C31.9,30.5,32,27.6,30.9,26.9z M16.2,25.4c1.2-0.5,2.2-0.7,2.4-0.8c0-0.1-1-0.5-1-0.6c0-0.1,0.3-0.4,0.2-0.5c-0.1-0.2-1-0.7-1.1-0.8
	s0-0.5,0-0.5s0.1,0.1,0.3,0c0.2-0.1,1-1.1,1-2c-0.1-1-1.3-3.4-2.1-3.9c-0.8-0.5-1.5-0.5-1.7-0.4c-0.2,0.1-1,0-1.3,0.3
	c-0.3,0.3-0.9,1.5-1,2.1c-0.1,0.6-1,2.3-1.3,2.5c-0.2,0.2,0.5,0,0.6-0.1c0.2-0.2-0.3,1.4-0.3,1.4l0.5-0.3l0.3,0.7l0.2,0.6
	c0,0-0.3,0.1-0.6,0.4S10.8,24,10.8,24s-1.5,0.3-1.9,0.7c-0.4,0.4-0.8,1.8-1.1,3.8c-0.1,0.1,4.6,1.2,5.8,1.1
	C13.3,26.9,14.8,25.9,16.2,25.4z M37.2,24.6c-0.4-0.4-1.9-0.7-1.9-0.7s-0.1-0.2-0.4-0.5c-0.3-0.3-0.6-0.4-0.6-0.4l0.2-0.6l0.3-0.7
	l0.5-0.3c0,0-0.5-1.1-0.4-0.9c0.2,0.2,0.9,0,0.6-0.2c-0.2-0.2-1.1-1.6-1.3-2.2c-0.1-0.6-0.7-1.8-1-2.1c-0.3-0.3-1.1-0.2-1.3-0.3
	c-0.2-0.1-1.2-0.1-2,0.4c-0.8,0.5-1.7,2.7-1.8,3.6c-0.1,1,0.8,2.2,0.9,2.3c0.2,0.1,0.3,0,0.3,0s0.1,0.5,0,0.5s-1,0.6-1.1,0.8
	c-0.1,0.2,0.2,0.4,0.2,0.5c0,0.1-1,0.6-1,0.6c0.1,0.1,0.9,0.3,1.8,0.7c1.6,0.6,3.7,1.7,3.2,4.5c1.2,0.1,6.2-2.2,6-2.3
	C38.3,25.5,37.6,25,37.2,24.6z"/>
<path fill="#8B9A9D" d="M23.1,0.4C10.3,0.4,0,10.7,0,23.5c0,12.7,10.3,23,23.1,23.1c12.7,0,23-10.3,23.1-23.1
	C46.1,10.7,35.8,0.4,23.1,0.4z M23.1,44.3C11.5,44.3,2.2,35,2.2,23.5c0-11.5,9.3-20.9,20.9-20.9c11.5,0,20.9,9.3,20.9,20.9
	C43.9,35,34.6,44.3,23.1,44.3z M30.9,27.3c-1.1-0.7-3.7-1.5-4-1.7c-0.4-0.2-0.6-0.3-0.6-0.3s-0.7-0.7-0.9-0.7
	c-0.2-0.1-0.1-1.2-0.1-1.2s0.5-1,0.4-1.2c0.3,0,0.5-0.3,0.7-1c0.5-1.5-0.1-1.4-0.1-1.4s0.3-1.1,0.3-2c-0.1-0.9,0-1.4-0.3-1.7
	c-0.3-0.3-0.9-0.4-0.9-0.4s-0.1-0.6-0.7-0.7c-0.6-0.1-1.9-0.1-2.5,0.1c-0.6,0.3-1.7,0.8-2,1.4c-0.3,0.6-0.7,1.7-0.6,2.1
	s0.2,1.1,0.2,1.1s-0.6-0.2-0.2,1.4s0.8,0.9,0.8,0.9s0.3,1.1,0.5,1.3c0.1,0.2,0,0.9,0,0.9L20,25.2c0,0-3.8,1.4-4.5,1.8
	c-0.6,0.4-1.1,2.4-1,4.5c5,1.8,12.8,1.4,17.4,0C31.9,30.9,32,28,30.9,27.3z"/>
<path fill="#99AAAD" d="M16.2,25.8c1.2-0.5,2.2-0.7,2.4-0.8c0-0.1-1-0.5-1-0.6c0-0.1,0.3-0.4,0.2-0.5c-0.1-0.2-1-0.7-1.1-0.8
	c-0.1-0.1,0-0.5,0-0.5s0.1,0.1,0.3,0s1-1.1,1-2c-0.1-1-1.3-3.4-2.1-3.9c-0.8-0.5-1.5-0.5-1.7-0.4c-0.2,0.1-1,0-1.3,0.3
	c-0.3,0.3-0.9,1.5-1,2.1c-0.1,0.6-1,2.3-1.3,2.5s0.5,0,0.6-0.1c0.2-0.2-0.3,1.4-0.3,1.4l0.5-0.3l0.3,0.7l0.2,0.6
	c0,0-0.3,0.1-0.6,0.4c-0.3,0.3-0.4,0.5-0.4,0.5s-1.5,0.3-1.9,0.7c-0.4,0.4-0.8,1.8-1.1,3.8c-0.1,0.1,4.6,1.2,5.8,1.1
	C13.3,27.4,14.8,26.4,16.2,25.8z"/>
<path fill="#A0B2B5" d="M29.4,25.7c-1-0.4-1.7-0.6-1.8-0.7c0-0.1,1-0.5,1-0.6c0-0.1-0.3-0.4-0.2-0.5c0.1-0.2,1-0.7,1.1-0.8
	c0.1-0.1,0-0.5,0-0.5s-0.1,0.1-0.3,0c-0.2-0.1-1-1.4-0.9-2.3s1-3.1,1.8-3.6c0.8-0.5,1.8-0.5,2-0.4c0.2,0.1,1,0,1.3,0.3
	s0.9,1.5,1,2.1c0.1,0.6,1,2,1.3,2.2c0.2,0.2-0.5,0.4-0.6,0.2c-0.2-0.2,0.4,0.9,0.4,0.9l-0.5,0.3l-0.3,0.7l-0.2,0.6
	c0,0,0.3,0.1,0.6,0.4c0.3,0.3,0.4,0.5,0.4,0.5s1.5,0.3,1.9,0.7c0.4,0.4,1.1,0.8,1.3,2.8c0.1,0.1-4.8,2.4-6,2.3
	C33.1,27.4,31,26.3,29.4,25.7z"/>
</svg>
