<?xml version="1.0" encoding="utf-8"?>
<!-- Generator: Adobe Illustrator 13.0.0, SVG Export Plug-In  -->
<!DOCTYPE svg PUBLIC "-//W3C//DTD SVG 1.1//EN" "http://www.w3.org/Graphics/SVG/1.1/DTD/svg11.dtd" [
	<!ENTITY ns_flows "http://ns.adobe.com/Flows/1.0/">
]>
<svg version="1.1"
	 xmlns="http://www.w3.org/2000/svg" xmlns:xlink="http://www.w3.org/1999/xlink" xmlns:a="http://ns.adobe.com/AdobeSVGViewerExtensions/3.0/"
	 x="0px" y="0px" width="75px" height="72px" viewBox="-5.1 -2.5 75 72" enable-background="new -5.1 -2.5 75 72"
	 xml:space="preserve">
<defs>
</defs>
<path opacity="0.25" fill="#FFFFFF" d="M32.9,1.6C14.7,1.6,0,16.3,0,34.5c0,18.2,14.7,32.9,32.9,32.9c18.2,0,32.9-14.7,32.9-32.9
	C65.8,16.3,51,1.6,32.9,1.6z M32.9,64.3c-16.4,0-29.8-13.3-29.8-29.8C3.1,18,16.4,4.7,32.9,4.7c16.4,0,29.8,13.3,29.8,29.8
	C62.6,50.9,49.3,64.2,32.9,64.3z M44.1,39.9c-1.5-1-5.2-2.1-5.8-2.4s-0.9-0.4-0.9-0.4s-1-1-1.2-1c-0.2-0.1-0.1-1.6-0.1-1.6
	s0.6-1.4,0.6-1.7c0.5,0.1,0.7-0.4,1-1.4c0.8-2.2-0.2-2-0.2-2s0.5-1.5,0.4-2.8s-0.1-1.9-0.5-2.4c-0.4-0.5-1.3-0.5-1.3-0.5
	s-0.2-0.8-1-1.1s-2.7-0.2-3.5,0.2s-2.5,1.2-2.9,2s-1,2.5-0.9,3.1s0.3,1.6,0.3,1.6s-0.8-0.2-0.2,1.9s1.1,1.3,1.1,1.3s0.5,1.6,0.7,1.9
	s0,1.2,0,1.2L28.5,37c0,0-5.4,2-6.4,2.6S20.6,43,20.7,46c7.2,2.6,18.3,2,24.8,0C45.5,45.1,45.7,41,44.1,39.9z M23.1,37.8
	c1.7-0.7,3.1-1,3.4-1.2c0.1-0.1-1.4-0.7-1.4-0.9s0.4-0.5,0.3-0.8s-1.4-1-1.5-1.1s0-0.8,0-0.8s0.2,0.2,0.4,0s1.5-1.5,1.4-2.9
	s-1.8-4.9-2.9-5.6s-2.1-0.7-2.4-0.5s-1.4,0.1-1.9,0.5s-1.3,2.2-1.5,3s-1.5,3.3-1.8,3.6s0.6,0,0.9-0.2S15.6,33,15.6,33l0.7-0.4l0.4,1
	l0.3,0.8c0,0-0.5,0.2-0.9,0.6c-0.4,0.4-0.6,0.7-0.6,0.7s-2.2,0.5-2.7,1c-0.6,0.5-1.2,2.6-1.6,5.4c-0.2,0.2,6.6,1.8,8.3,1.6
	C19,40,21.2,38.6,23.1,37.8z M53.1,36.8c-0.6-0.5-2.7-1-2.7-1s-0.2-0.2-0.6-0.7c-0.4-0.4-0.9-0.6-0.9-0.6l0.3-0.8l0.4-1l0.7-0.4
	c0,0-0.7-1.5-0.5-1.3s1.2,0,0.9-0.3s-1.6-2.3-1.8-3.1s-1-2.6-1.5-3s-1.6-0.3-1.9-0.5s-1.7-0.2-2.8,0.5s-2.4,3.8-2.5,5.2
	s1.1,3.2,1.3,3.3s0.4,0,0.4,0s0.2,0.6,0,0.8s-1.4,0.9-1.5,1.1s0.2,0.6,0.3,0.8s-1.4,0.8-1.4,0.9c0.2,0.1,1.2,0.5,2.6,1
	c2.3,0.9,5.3,2.5,4.5,6.4c1.7,0.2,8.8-3.1,8.6-3.2C54.6,38,53.7,37.3,53.1,36.8z"/>
<path opacity="0.25" d="M32.9,0C14.7,0,0,14.7,0,32.9C0,51,14.7,65.8,32.9,65.8C51,65.8,65.8,51,65.8,32.9C65.8,14.7,51,0,32.9,0z
	 M32.9,62.7c-16.4,0-29.8-13.3-29.8-29.8c0-16.4,13.3-29.8,29.8-29.8c16.4,0,29.8,13.3,29.8,29.8C62.6,49.3,49.3,62.6,32.9,62.7z
	 M44.1,38.3c-1.5-1-5.2-2.1-5.8-2.4c-0.5-0.2-0.9-0.4-0.9-0.4s-1-1-1.2-1c-0.2-0.1-0.1-1.6-0.1-1.6s0.6-1.4,0.6-1.7
	c0.5,0.1,0.7-0.4,1-1.4c0.8-2.2-0.2-2-0.2-2s0.5-1.5,0.4-2.8s-0.1-1.9-0.5-2.4C37,22,36.2,22,36.2,22s-0.2-0.8-1-1.1
	s-2.7-0.2-3.5,0.2s-2.5,1.2-2.9,2s-1,2.5-0.9,3.1s0.3,1.6,0.3,1.6s-0.8-0.2-0.2,1.9s1.1,1.3,1.1,1.3s0.5,1.6,0.7,1.9s0,1.2,0,1.2
	l-1.3,1.3c0,0-5.4,2-6.4,2.6s-1.6,3.4-1.5,6.5c7.2,2.6,18.3,2,24.8,0C45.5,43.5,45.7,39.3,44.1,38.3z M23.1,36.2
	c1.7-0.7,3.1-1,3.4-1.2c0.1-0.1-1.4-0.7-1.4-0.9c0-0.2,0.4-0.5,0.3-0.8s-1.4-1-1.5-1.1s0-0.8,0-0.8s0.2,0.2,0.4,0s1.5-1.5,1.4-2.9
	s-1.8-4.9-2.9-5.6s-2.1-0.7-2.4-0.5s-1.4,0.1-1.9,0.5s-1.3,2.2-1.5,3s-1.5,3.3-1.8,3.6s0.6,0,0.9-0.2s-0.4,2.1-0.4,2.1l0.7-0.4
	l0.4,1l0.3,0.8c0,0-0.5,0.2-0.9,0.6s-0.6,0.7-0.6,0.7s-2.2,0.5-2.7,1c-0.6,0.5-1.2,2.6-1.6,5.4c-0.2,0.2,6.6,1.8,8.3,1.6
	C19,38.4,21.2,37,23.1,36.2z M53.1,35.2c-0.6-0.5-2.7-1-2.7-1s-0.2-0.2-0.6-0.7s-0.9-0.6-0.9-0.6l0.3-0.8l0.4-1l0.7-0.4
	c0,0-0.7-1.5-0.5-1.3s1.2,0,0.9-0.3s-1.6-2.3-1.8-3.1s-1-2.6-1.5-3s-1.6-0.3-1.9-0.5s-1.7-0.2-2.8,0.5s-2.4,3.8-2.5,5.2
	s1.1,3.2,1.3,3.3s0.4,0,0.4,0s0.2,0.6,0,0.8s-1.4,0.9-1.5,1.1s0.2,0.6,0.3,0.8c0,0.2-1.4,0.8-1.4,0.9c0.2,0.1,1.2,0.5,2.6,1
	c2.3,0.9,5.3,2.5,4.5,6.4c1.7,0.2,8.8-3.1,8.6-3.2C54.6,36.4,53.7,35.7,53.1,35.2z"/>
<path fill="#8B9A9D" d="M32.9,0.6C14.7,0.6,0,15.3,0,33.5c0,18.2,14.7,32.9,32.9,32.9c18.2,0,32.9-14.7,32.9-32.9
	C65.8,15.3,51,0.6,32.9,0.6z M32.9,63.3c-16.4,0-29.8-13.3-29.8-29.8C3.1,17,16.4,3.7,32.9,3.7c16.4,0,29.8,13.3,29.8,29.8
	C62.6,49.9,49.3,63.2,32.9,63.3z M44.1,38.9c-1.5-1-5.2-2.1-5.8-2.4s-0.9-0.4-0.9-0.4s-1-1-1.2-1c-0.2-0.1-0.1-1.6-0.1-1.6
	s0.6-1.4,0.6-1.7c0.5,0.1,0.7-0.4,1-1.4c0.8-2.2-0.2-2-0.2-2s0.5-1.5,0.4-2.8s-0.1-1.9-0.5-2.4c-0.4-0.5-1.3-0.5-1.3-0.5
	s-0.2-0.8-1-1.1s-2.7-0.2-3.5,0.2s-2.5,1.2-2.9,2s-1,2.5-0.9,3.1s0.3,1.6,0.3,1.6s-0.8-0.2-0.2,1.9s1.1,1.3,1.1,1.3s0.5,1.6,0.7,1.9
	s0,1.2,0,1.2L28.5,36c0,0-5.4,2-6.4,2.6S20.6,42,20.7,45c7.2,2.6,18.3,2,24.8,0C45.5,44.1,45.7,40,44.1,38.9z"/>
<path fill="#99AAAD" d="M23.1,36.8c1.7-0.7,3.1-1,3.4-1.2c0.1-0.1-1.4-0.7-1.4-0.9c0-0.2,0.4-0.5,0.3-0.8s-1.4-1-1.5-1.1
	s0-0.8,0-0.8s0.2,0.2,0.4,0s1.5-1.5,1.4-2.9s-1.8-4.9-2.9-5.6s-2.1-0.7-2.4-0.5s-1.4,0.1-1.9,0.5s-1.3,2.2-1.5,3s-1.5,3.3-1.8,3.6
	s0.6,0,0.9-0.2S15.6,32,15.6,32l0.7-0.4l0.4,1l0.3,0.8c0,0-0.5,0.2-0.9,0.6s-0.6,0.7-0.6,0.7s-2.2,0.5-2.7,1
	c-0.6,0.5-1.2,2.6-1.6,5.4c-0.2,0.2,6.6,1.8,8.3,1.6C19,39,21.2,37.6,23.1,36.8z"/>
<path fill="#A0B2B5" d="M41.9,36.6c-1.4-0.5-2.4-0.9-2.6-1c-0.1-0.1,1.4-0.7,1.4-0.9c0-0.2-0.4-0.5-0.3-0.8s1.4-1,1.5-1.1
	s0-0.8,0-0.8s-0.2,0.2-0.4,0s-1.5-1.9-1.3-3.3s1.4-4.5,2.5-5.2s2.5-0.7,2.8-0.5s1.4,0.1,1.9,0.5s1.3,2.2,1.5,3s1.5,2.8,1.8,3.1
	s-0.7,0.5-0.9,0.3s0.5,1.3,0.5,1.3l-0.7,0.4l-0.4,1l-0.3,0.8c0,0,0.5,0.2,0.9,0.6s0.6,0.7,0.6,0.7s2.2,0.5,2.7,1
	c0.6,0.5,1.5,1.2,1.9,4c0.2,0.2-6.8,3.4-8.6,3.2C47.2,39.1,44.2,37.5,41.9,36.6z"/>
</svg>
